<?xml version="1.0" encoding="UTF-8" standalone="no"?>
<!-- Created with Inkscape (http://www.inkscape.org/) -->

<svg
   version="1.1"
   id="svg1"
   width="1365.3333"
   height="1365.3333"
   viewBox="0 0 1365.3333 1365.3333"
   sodipodi:docname="logo.svg"
   inkscape:version="1.4 (86a8ad7, 2024-10-11)"
   xmlns:inkscape="http://www.inkscape.org/namespaces/inkscape"
   xmlns:sodipodi="http://sodipodi.sourceforge.net/DTD/sodipodi-0.dtd"
   xmlns="http://www.w3.org/2000/svg"
   xmlns:svg="http://www.w3.org/2000/svg">
  <defs
     id="defs1">
    <linearGradient
       id="swatch2"
       inkscape:swatch="solid">
      <stop
         style="stop-color:#000000;stop-opacity:1;"
         offset="0"
         id="stop2" />
    </linearGradient>
  </defs>
  <sodipodi:namedview
     id="namedview1"
     pagecolor="#080808"
     bordercolor="#111111"
     borderopacity="1"
     inkscape:showpageshadow="0"
     inkscape:pageopacity="0"
     inkscape:pagecheckerboard="1"
     inkscape:deskcolor="#d1d1d1"
     inkscape:zoom="0.44280493"
     inkscape:cx="663.94924"
     inkscape:cy="624.42846"
     inkscape:window-width="1920"
     inkscape:window-height="1057"
     inkscape:window-x="-8"
     inkscape:window-y="-8"
     inkscape:window-maximized="1"
     inkscape:current-layer="g1" />
  <g
     inkscape:groupmode="layer"
     inkscape:label="Image"
     id="g1">
    <path
       style="fill:#ffffff;fill-opacity:1;stroke-width:1.45768"
       d="m 668.2858,1347.4693 c -3.79627,-6.0666 -4.01408,-7.7677 -2.11507,-16.513 9.44358,-43.4903 2.98647,-58.3258 -24.77353,-56.9175 -33.43021,1.6961 -41.35275,-1.5949 -30.64865,-12.7313 6.16538,-6.4144 9.68822,-6.5918 47.45711,-2.3909 11.9372,1.3275 15.56845,-32.8003 4.70403,-44.21 -4.42697,-4.6492 -5.79765,-9.2011 -2.77056,-9.2011 0.89633,0 4.19654,-2.5833 7.33379,-5.7408 10.87293,-10.9432 31.68842,3.6154 21.78649,15.2376 -5.59994,6.5733 -8.77707,25.4855 -6.39139,38.0454 1.23632,6.5083 37.96409,8.9321 52.67289,3.4761 3.6933,-1.37 14.88525,6.6093 14.88525,10.6124 0,6.6243 -11.31634,8.6095 -40.75726,7.1502 -26.30029,-1.3036 -26.30029,-1.3036 -25.2671,34.0097 1.28708,43.995 -4.4192,57.8651 -16.116,39.1732 z M 487.76353,1274.17 c -6.94245,-6.8568 -5.5791,-16.8599 2.6494,-19.4394 9.52352,-2.9852 13.27563,10.5118 5.04521,18.1484 -4.20651,3.9029 -4.92743,4.024 -7.69461,1.291 z m -47.89889,-1.4473 c -8.15313,-8.0525 2.83979,-23.632 11.32396,-16.0487 4.7187,4.2177 4.97613,8.3063 0.88593,14.0736 -3.34949,4.723 -8.57218,5.5678 -12.20989,1.9751 z m 373.09146,-1.6408 c -3.7885,-6.9914 -1.64937,-14.3084 4.38384,-14.9957 4.34044,-0.4943 5.54626,0.3253 6.60408,4.4884 2.69912,10.621 -6.27581,19.2032 -10.98792,10.5073 z m 44.98401,-0.996 c -2.70676,-7.0312 -2.39699,-9.4612 1.66917,-13.0955 7.16921,-6.4081 12.06892,-3.0938 12.06892,8.1641 0,10.1222 -10.31454,13.8249 -13.73809,4.9314 z m 46.11765,0.6617 c -5.56517,-7.8474 -1.93143,-16.7182 6.91973,-16.8926 7.48032,-0.1473 12.71005,13.4708 7.24577,18.8677 -3.73392,3.6876 -10.85341,2.695 -14.1655,-1.9751 z m 8.03784,-12.4471 c -0.71711,-0.7081 -1.30382,-0.129 -1.30382,1.2877 0,1.4165 0.58671,1.996 1.30382,1.2876 0.71694,-0.7081 0.71694,-1.867 0,-2.5753 z m -380.30132,10.0838 c -3.01565,-6.537 3.27616,-14.791 8.763,-11.4962 7.05702,4.238 4.67428,16.2209 -3.2254,16.2209 -1.84694,0 -4.33881,-2.1263 -5.5376,-4.7247 z m -390.08487,-82.2626 c -5.11591,-0.8503 -13.03639,-3.6454 -17.6011,-6.2111 -16.66443,-9.367 -22.2466,-12.6117 -35.362945,-20.5554 -16.484157,-9.9834 -33.490487,-14.6075 -47.670076,-12.9615 -12.165729,1.4121 -12.211931,1.3101 -3.98239,-8.8002 13.530103,-16.6221 10.267601,-157.24855 -3.955709,-170.50176 -7.26485,-6.76928 -7.26485,-6.76928 21.046813,-6.64123 28.311656,0.12806 28.311656,0.12806 22.256871,5.47121 -16.213683,14.30791 -13.160628,164.32218 3.41153,167.62388 6.868537,1.3686 16.114399,4.8644 20.546066,7.7684 4.4318,2.9041 15.63211,10.3197 24.88971,16.4792 28.35022,18.8622 48.8492,18.6469 58.3862,-0.613 5.08642,-10.2721 4.72854,-10.647 -9.47511,-9.9259 -27.38496,1.3905 -30.51121,-0.2627 -24.25856,-12.8285 3.01316,-6.0554 6.14836,-13.1827 6.96725,-15.8385 0.81889,-2.656 4.00748,-9.9806 7.08547,-16.2774 6.88745,-14.0891 7.0199,-19.0354 0.642,-23.9904 -2.72524,-2.1171 -4.19801,-4.3112 -3.27292,-4.8757 2.57753,-1.5733 10.18325,0.8951 10.18325,3.3052 0,4.1306 5.25906,-5.6456 11.26251,-20.936 3.33673,-8.4987 9.20815,-23.3826 13.04754,-33.0754 8.5223,-21.5147 8.60943,-24.05292 0.97832,-28.50502 -8.29964,-4.84226 -6.67242,-5.38605 11.61086,-3.87999 13.42671,1.10588 15.90406,1.84365 15.90406,4.73656 0,1.88465 2.20571,7.76385 4.90161,13.06485 5.35073,10.5215 21.14757,52.4981 30.59026,81.2873 9.10315,27.7531 17.79823,45.2336 25.03023,50.3196 8.70506,6.1219 5.69806,7.4024 -13.58585,5.7856 -9.14273,-0.7668 -19.04335,-0.9532 -22.00136,-0.4145 -5.87275,1.0694 -7.62758,-2.6352 -2.21935,-4.685 4.28689,-1.6247 2.60966,-12.6114 -4.81171,-31.5174 -10.24221,-26.092 -55.97309,-22.0515 -65.58314,5.7945 -7.44497,21.573 -7.02637,25.1097 2.9718,25.1097 17.49225,0 20.47725,25.2146 4.52245,38.2033 -10.77584,8.7727 -23.60953,11.2165 -42.45458,8.0846 z m 91.43594,-103.7504 c -1.39475,-3.3658 -6.22492,-16.7573 -14.96167,-41.481 -5.03494,-14.2476 -6.77848,-15.7935 -8.76622,-7.7727 -0.724,2.9214 -5.58102,14.5253 -10.79344,25.7866 -11.53004,24.9103 -11.59707,22.9448 0.79014,23.1751 8.31579,0.1548 22.06958,1.5526 33.45573,3.4003 0.92185,0.1494 1.04579,-1.2493 0.27546,-3.1083 z m 135.16057,67.6133 c -13.47511,-0.6819 -13.47511,-0.6819 -7.82266,-6.507 11.03897,-11.3764 9.65318,-162.08792 -1.60699,-174.754 -7.6704,-8.62827 -6.453,-9.50911 9.12896,-6.60541 7.04088,1.31222 16.54107,1.84312 21.11134,1.18015 80.90242,-11.73752 129.02556,63.91656 67.34517,105.87276 -21.19773,14.419 -59.03525,17.5622 -59.03525,4.9042 0,-4.5813 0.56206,-4.7769 16.62321,-5.7786 57.93401,-3.6139 60.25897,-78.02211 2.83495,-90.73208 -27.09278,-5.9967 -26.30308,-8.42931 -26.30308,81.02808 0,80.5679 0,80.5679 4.88915,85.1042 8.77971,8.1462 8.92053,8.1138 -27.1648,6.2877 z m 794.44628,-2.2706 c -0.3609,-0.9908 -4.6855,-5.9941 -9.6101,-11.1183 -4.9247,-5.124 -20.1347,-23.2236 -33.7999,-40.2209 -13.665,-16.9974 -25.9909,-32.2081 -27.3905,-33.8016 -1.3994,-1.5935 -5.2318,-6.8087 -8.5163,-11.5891 -5.1364,-7.4759 -17.222,-21.2441 -18.6511,-21.248 -5.0584,-0.013 1.5743,105.6898 6.9243,110.3493 6.2936,5.4813 6.2936,5.4813 -12.7743,5.5122 -20.0715,0.033 -22.636,-1.2885 -15.0738,-7.766 6.8382,-5.8576 7.74,-14.5779 7.74,-74.8505 0,-64.57965 0.6265,-61.1926 -12.827,-69.34601 -5.7176,-3.46532 18.1241,-3.30171 24.8624,0.17049 5.6962,2.93535 19.2377,16.95932 32.6251,33.78782 6.1576,7.7401 21.4184,26.3224 40.4114,49.2064 16.8663,20.3219 15.6979,20.5591 15.3774,-3.1205 -0.1475,-10.8888 -0.3673,-31.7412 -0.4888,-46.3385 -0.2211,-26.5406 -0.2211,-26.5406 -7.0418,-30.90427 -9.892,-6.32872 -9.0639,-6.6954 14.6413,-6.48555 24.0272,0.21262 24.0534,0.22506 14.6696,6.95058 -7.8951,5.65894 -8.2609,10.92334 -6.9924,100.63954 0.6259,44.2606 -0.6287,59.6672 -4.0855,50.1729 z m -682.69838,-1.5922 c -16.21253,-0.6098 -20.32268,-2.2215 -14.55978,-5.709 7.24725,-4.3856 25.466,-40.1199 28.2458,-55.4012 0.55707,-3.0627 2.51593,-7.0531 4.35289,-8.8673 1.83697,-1.8142 7.36841,-14.0845 12.29217,-27.2672 4.9239,-13.1827 11.66439,-29.3521 14.97897,-35.9321 7.70298,-15.2919 7.56921,-16.05033 -3.75196,-21.25869 -4.56807,-2.10152 -4.31125,-2.25656 3.91139,-2.35879 24.83661,-0.30898 22.32979,-3.10817 42.24499,47.17018 7.15337,18.0596 16.48943,41.5276 20.747,52.151 4.2574,10.6233 10.00622,25.2135 12.77516,32.4225 2.7688,7.209 7.70239,15.6835 10.96329,18.8323 5.92892,5.725 5.92892,5.725 -15.9548,5.725 -20.13728,0 -26.68635,-1.6295 -18.70543,-4.6542 5.34516,-2.0258 1.44432,-16.6531 -12.9242,-48.4626 -1.91954,-4.2492 -7.24299,-17.7216 -11.83012,-29.9385 -9.29133,-24.7452 -15.3222,-37.599 -16.90674,-36.0341 -0.57849,0.5713 -3.58432,8.4817 -6.67933,17.5784 -3.09516,9.0967 -7.81532,20.8037 -10.48951,26.0157 -5.43903,10.6011 -7.87136,9.3322 24.37766,12.7173 30.73225,3.226 17.75408,12.4735 -17.61797,12.5535 -20.27703,0.046 -40.20793,35.0448 -26.40163,46.3615 3.56436,2.9215 3.83791,5.9415 0.48886,5.3972 -1.34442,-0.2184 -10.14497,-0.6869 -19.55671,-1.0409 z m 445.94514,-1.4188 c -38.80906,-10.5508 -62.20841,-61.1258 -50.15488,-108.4037 9.8748,-38.73171 74.90986,-61.13514 110.24126,-37.97606 76.10456,49.88496 26.79906,170.00056 -60.08638,146.37976 z m 42.5901,-15.4593 c 33.64234,-16.6791 38.95834,-90.2066 8.42733,-116.5618 -43.65677,-37.68566 -92.78392,20.0216 -72.24138,84.8585 9.89958,31.2449 37.29045,44.8528 63.81405,31.7033 z m -319.85807,15.1578 c 0,-0.6751 2.20012,-3.2411 4.88913,-5.7026 4.88929,-4.4751 4.88929,-4.4751 4.88929,-69.2731 0,-64.7982 0,-64.7982 -15.83878,-64.7982 -18.51416,0 -26.54304,3.0221 -35.02266,13.1821 -7.64841,9.1643 -9.00223,6.9521 -4.12746,-6.7446 2.20527,-6.1965 4.25932,-13.43913 4.56441,-16.09506 0.55473,-4.82869 0.55473,-4.82869 56.53413,-4.1477 37.17014,0.45218 57.2876,-0.0113 59.8732,-1.37711 4.2762,-2.2602 6.32173,6.50542 6.36017,27.25437 0.0206,11.1926 -2.52151,11.6787 -7.78512,1.4885 -6.29121,-12.1794 -39.21686,-21.99122 -41.29891,-12.3072 -3.53475,16.4407 1.46382,130.0767 5.92819,134.7668 4.74115,4.9808 4.74115,4.9808 -17.11222,4.9808 -12.01936,0 -21.85337,-0.5523 -21.85337,-1.227 z m 95.03022,-0.2049 c -0.56119,-0.5543 1.58878,-3.4153 4.77797,-6.3576 9.68704,-8.9372 8.99663,-131.0389 -0.79719,-140.99376 -9.25261,-9.40474 61.83411,-9.68068 80.85751,-0.31406 30.36014,14.94912 31.5334,57.73322 2.00947,73.27572 -10.37438,5.4615 -10.56183,3.894 3.11715,26.07 14.59146,23.6551 26.92088,38.8194 35.09923,43.1693 12.13786,6.4559 7.10851,7.9718 -17.88711,5.3915 -10.90565,-1.1258 -11.90876,-1.6793 -18.37687,-10.1393 -3.76281,-4.9218 -7.52124,-9.8183 -8.35201,-10.8814 -0.83077,-1.0629 -8.76682,-12.7792 -17.63571,-26.0363 -8.86875,-13.2573 -18.10464,-25.0788 -20.5239,-26.2701 -3.88339,-1.912 -2.74446,-2.4358 9.71697,-4.4682 29.03125,-4.7353 39.26261,-22.5501 27.1469,-47.2683 -6.65453,-13.5768 -9.72797,-15.3283 -28.61527,-16.3075 -16.64242,-0.8626 -16.64242,-0.8626 -16.0786,64.8965 0.55942,65.255 0.59844,65.8053 5.08144,71.7908 4.09988,5.474 -34.14481,9.7712 -39.53998,4.4427 z m 438.90739,-0.4997 c 0.016,-0.5312 2.2057,-3.004 4.865,-5.4952 4.4091,-4.1301 24.066,-41.5947 27.2664,-51.9675 1.0471,-3.3937 0.5622,-4.3523 -2.2134,-4.3753 -1.9548,-0.015 -4.8743,-0.9276 -6.4878,-2.0251 -2.1786,-1.482 -0.7421,-1.8472 5.5821,-1.4191 9.6665,0.6542 9.0123,1.7989 20.6494,-36.1225 2.9342,-9.5609 7.5193,-22.9392 10.1891,-29.7296 5.4445,-13.84709 5.0817,-16.79128 -2.4172,-19.60701 -8.1709,-3.06822 -4.5963,-3.88803 11.2023,-2.56919 16.7974,1.40247 20.3711,6.92273 37.9789,58.6662 13.0501,38.3501 29.7356,79.3028 34.5602,84.824 1.4706,1.683 4.8415,4.486 7.4909,6.2291 6.8043,4.4764 5.6462,4.6762 -20.6068,3.5534 -14.3836,-0.6152 -22.1722,-1.619 -20.1203,-2.593 6.3523,-3.015 2.108,-27.3312 -7.8324,-44.8743 -1.725,-3.0443 -53.8941,-4.612 -56.8344,-1.7079 -2.159,2.1323 -13.5858,40.2406 -12.7281,42.4481 0.5563,1.4319 2.2636,3.0778 3.7939,3.6577 7.297,2.7657 1.0793,4.4461 -15.7926,4.2686 -10.2162,-0.108 -18.5615,-0.6302 -18.5452,-1.1614 z m 93.8347,-62.388 c 0,-1.3809 -0.7827,-3.3367 -1.7394,-4.3459 -0.9568,-1.0092 -3.7019,-7.4845 -6.1004,-14.3898 -2.3982,-6.9052 -5.5758,-15.2939 -7.0609,-18.6414 -1.4853,-3.3475 -2.7315,-7.2588 -2.7697,-8.6918 -0.3548,-13.3403 -5.211,-10.8949 -11.0039,5.5412 -3.2882,9.3297 -8.2599,21.8908 -11.0479,27.9134 -5.0693,10.9502 -5.0693,10.9502 9.0148,12.0834 17.3658,1.3971 27.3155,2.327 29.2406,2.7328 0.8067,0.17 1.4668,-0.8208 1.4668,-2.2019 z m -1158.52985,59.497 c -3.56965,-2.6687 -3.49939,-2.963 1.95563,-8.1893 3.11203,-2.9815 7.46697,-7.9485 9.67752,-11.0374 7.95379,-11.1143 10.36734,-0.6054 3.63815,15.8403 -2.85035,6.9661 -8.73732,8.2717 -15.2713,3.3864 z M 646.19363,944.58221 c -38.02555,-2.53959 -127.18302,-25.05979 -130.1227,-32.86751 -0.35862,-0.95229 -1.8836,-1.73143 -3.38894,-1.73143 -1.50534,0 -14.11242,-5.73286 -28.01581,-12.73969 -60.27158,-30.37493 -120.07395,-87.02555 -154.91429,-146.74963 -10.80223,-18.51762 -22.4081,-43.55148 -28.14254,-60.70379 -1.95329,-5.84283 -5.22811,-15.35898 -7.27717,-21.14701 -34.22254,-96.66888 -14.4879,-221.57947 50.37404,-318.84437 16.51467,-24.76471 76.21348,-88.80572 82.78442,-88.80572 1.05885,0 3.08811,-1.08649 4.50939,-2.41441 4.09652,-3.82725 16.8796,-13.03776 18.09465,-13.03776 0.6071,0 5.33388,-3.00143 10.5039,-6.66984 26.68503,-18.93449 84.17212,-41.94212 84.7748,-33.92883 0.16135,2.14489 0.38136,4.85999 0.48902,6.03351 0.1071,1.17352 -5.339,4.18856 -12.10339,6.70012 -63.70102,23.65136 -130.64385,73.85138 -164.65708,123.47522 -3.64078,5.31167 -7.1679,10.09217 -7.83807,10.62335 -6.95551,5.5123 -29.60284,44.18264 -40.72321,69.53467 -99.37344,226.55149 52.61863,474.32589 313.43416,510.95419 75.47203,10.59912 178.01748,-10.25643 239.20812,-48.64989 5.66786,-3.55626 10.77643,-6.46592 11.35242,-6.46592 4.62131,0 40.55103,-28.30028 67.1368,-52.88075 168.36145,-155.66308 142.34725,-434.06563 -52.6329,-563.27366 -2.40476,-1.59351 -5.36439,-3.78469 -6.5771,-4.86929 -11.89628,-10.63934 -58.83723,-33.79762 -77.2738,-38.123 -10.26129,-2.4074 -15.16011,-13.12006 -7.35271,-16.07904 8.88327,-3.36674 89.14061,35.84188 107.84529,52.68633 2.1513,1.93731 7.87171,6.47487 12.71195,10.08348 19.75366,14.72704 61.38512,58.86321 75.54252,80.08753 4.1654,6.24475 10.0528,14.93659 13.0828,19.31518 8.9125,12.87921 33.4799,63.15463 37.9435,77.64879 16.4511,53.41969 20.5389,77.82744 20.6776,123.46417 0.1023,33.64255 -0.996,42.65859 -9.8836,81.12378 -13.7101,59.33675 -46.6526,125.23576 -76.76147,153.55575 -0.56473,0.53114 -6.87808,7.9192 -14.02979,16.41788 -40.57689,48.2191 -95.01314,83.10035 -169.77922,108.78995 -56.34698,19.36077 -93.22011,23.88032 -158.99159,19.48764 z m 26.98336,-3.69464 c 0.6882,-1.09981 -0.99607,-1.93151 -3.9114,-1.93151 -2.91534,0 -4.5996,0.8317 -3.9114,1.93151 0.66488,1.06233 2.42499,1.93153 3.9114,1.93153 1.48641,0 3.24652,-0.8692 3.9114,-1.93153 z m 4.88915,0.96577 c 0,-0.53117 -0.44003,-0.96577 -0.97788,-0.96577 -0.53772,0 -0.97775,0.4346 -0.97775,0.96577 0,0.53116 0.44003,0.96576 0.97775,0.96576 0.53785,0 0.97788,-0.4346 0.97788,-0.96576 z m -49.54385,-2.25345 c -0.71712,-0.70822 -1.89051,-0.70822 -2.60746,0 -0.7171,0.70822 -0.13054,1.28768 1.30365,1.28768 1.4342,0 2.0209,-0.57946 1.30381,-1.28768 z m 29.98712,0.32192 c 0,-0.53116 -0.44002,-0.96575 -0.97788,-0.96575 -0.53786,0 -0.9779,0.43459 -0.9779,0.96575 0,0.53117 0.44004,0.96576 0.9779,0.96576 0.53786,0 0.97788,-0.43459 0.97788,-0.96576 z m 115.38487,-13.52064 c 0,-0.53115 -0.44002,-0.96575 -0.97774,-0.96575 -0.53786,0 -0.97789,0.4346 -0.97789,0.96575 0,0.53119 0.44003,0.96577 0.97789,0.96577 0.53772,0 0.97774,-0.43458 0.97774,-0.96577 z m 19.55687,-1.93151 c 0,-0.53117 -0.44002,-0.96575 -0.97788,-0.96575 -0.53787,0 -0.9779,0.43458 -0.9779,0.96575 0,0.53118 0.44003,0.96576 0.9779,0.96576 0.53786,0 0.97788,-0.43458 0.97788,-0.96576 z M 534.22603,913.98301 c -1.02175,-0.98717 -4.49797,-2.29589 -7.72483,-2.90826 -5.86704,-1.1134 -5.86704,-1.1134 0,1.70772 6.84404,3.29095 10.4725,3.85482 7.72483,1.20054 z m 284.64888,0.82905 c 0,-0.53115 -0.44002,-0.96574 -0.9779,-0.96574 -0.53771,0 -0.97773,0.43459 -0.97773,0.96574 0,0.53118 0.44002,0.96576 0.97773,0.96576 0.53788,0 0.9779,-0.43458 0.9779,-0.96576 z m -302.15215,-8.69183 c 0.66473,-1.06233 0.76873,-1.93151 0.23087,-1.93151 -0.53786,0 -1.52177,0.86918 -2.1865,1.93151 -0.66474,1.06235 -0.76873,1.93153 -0.23086,1.93153 0.53786,0 1.52175,-0.86918 2.18649,-1.93153 z m 337.35434,-6.7603 c 0,-0.53118 -0.44003,-0.96576 -0.97789,-0.96576 -0.53771,0 -0.97773,0.43458 -0.97773,0.96576 0,0.53116 0.44002,0.96574 0.97773,0.96574 0.53786,0 0.97789,-0.43458 0.97789,-0.96574 z m -352.67374,-2.25345 c -0.7171,-0.70822 -1.89051,-0.70822 -2.60761,0 -0.71709,0.70824 -0.13054,1.28769 1.3038,1.28769 1.43419,0 2.0209,-0.57945 1.30381,-1.28769 z m 359.51866,-0.64384 c 0.66474,-1.06234 0.76858,-1.93153 0.23071,-1.93153 -0.53771,0 -1.5216,0.86919 -2.18648,1.93153 -0.66474,1.06234 -0.76859,1.93153 -0.23073,1.93153 0.53771,0 1.52162,-0.86919 2.1865,-1.93153 z m -369.58973,-3.80979 c -0.64639,-1.03307 -4.68995,-2.91827 -8.98564,-4.18939 -4.75406,-1.40674 -6.90036,-2.8665 -5.4851,-3.73039 1.30352,-0.79571 0.0323,-1.28878 -2.89537,-1.12228 -6.53015,0.37148 -1.81599,4.65752 7.10615,6.46095 2.98045,0.60242 5.89255,1.85222 6.47133,2.77735 0.57893,0.92511 1.93274,1.68202 3.00833,1.68202 1.07557,0 1.42672,-0.84521 0.7803,-1.87826 z m -26.43493,-12.60811 c 0,-0.53117 -0.44004,-0.96576 -0.97789,-0.96576 -0.53786,0 -0.97789,0.43459 -0.97789,0.96576 0,0.53117 0.44003,0.96575 0.97789,0.96575 0.53785,0 0.97789,-0.43458 0.97789,-0.96575 z m -10.43027,-6.11648 c -0.71709,-0.70824 -1.89049,-0.70824 -2.6076,0 -0.7171,0.70823 -0.13055,1.28767 1.30381,1.28767 1.43419,0 2.02089,-0.57944 1.30379,-1.28767 z m -5.21519,-3.42713 c 0,-0.46847 -1.01603,-1.47193 -2.25779,-2.22995 -1.39899,-0.8539 -1.72696,-0.52984 -0.86245,0.85176 1.39327,2.22655 3.12024,2.98934 3.12024,1.37819 z m -9.77844,-8.58053 c 0,-0.93844 -1.98013,-2.19899 -4.40027,-2.80124 -4.24979,-1.05752 -4.27047,-0.99919 -0.60402,1.70626 4.42815,3.26747 5.00429,3.39355 5.00429,1.09498 z m 485.98591,-4.08833 c 0.66471,-1.06234 0.76859,-1.93153 0.23072,-1.93153 -0.53775,0 -1.52156,0.86919 -2.18651,1.93153 -0.66472,1.06234 -0.7686,1.93152 -0.23085,1.93152 0.53787,0 1.5218,-0.86918 2.18664,-1.93152 z m -503.587,-8.69183 c 0,-0.53116 -0.44004,-0.96576 -0.97776,-0.96576 -0.53785,0 -0.97787,0.4346 -0.97787,0.96576 0,0.53116 0.44002,0.96576 0.97787,0.96576 0.53772,0 0.97776,-0.4346 0.97776,-0.96576 z m -7.82267,-7.72607 c 0,-0.53118 -0.44004,-0.96577 -0.97789,-0.96577 -0.53772,0 -0.97774,0.43459 -0.97774,0.96577 0,0.53117 0.44002,0.96575 0.97774,0.96575 0.53785,0 0.97789,-0.43458 0.97789,-0.96575 z m -3.91141,-3.86305 c 0,-0.53115 -0.44002,-0.96575 -0.97773,-0.96575 -0.53787,0 -0.97789,0.4346 -0.97789,0.96575 0,0.53116 0.44002,0.96577 0.97789,0.96577 0.53771,0 0.97773,-0.43461 0.97773,-0.96577 z m 549.28543,-10.82594 c 6.59079,-8.23377 4.15654,-8.71945 -3.6797,-0.73422 -3.94283,4.01756 -5.46577,6.68829 -3.77783,6.62451 1.55569,-0.0589 4.91147,-2.70941 7.45753,-5.89029 z m -557.10808,3.09987 c 0,-0.53118 -0.44003,-0.96576 -0.9779,-0.96576 -0.5377,0 -0.97773,0.43458 -0.97773,0.96576 0,0.53117 0.44003,0.96577 0.97773,0.96577 0.53787,0 0.9779,-0.4346 0.9779,-0.96577 z m -9.77844,-9.45094 c 0,-0.4175 -1.36569,-1.27674 -3.03502,-1.90938 -1.74046,-0.65961 -2.52546,-0.3358 -1.84019,0.7591 1.14847,1.83533 4.87521,2.71464 4.87521,1.15028 z m -5.86703,-6.00121 c 0,-0.53115 -0.44002,-0.96576 -0.97774,-0.96576 -0.53786,0 -0.97789,0.43461 -0.97789,0.96576 0,0.53116 0.44003,0.96575 0.97789,0.96575 0.53772,0 0.97774,-0.43459 0.97774,-0.96575 z m 584.74757,0 c 0,-0.53115 -0.44005,-0.96576 -0.97792,-0.96576 -0.53764,0 -0.97772,0.43461 -0.97772,0.96576 0,0.53116 0.44008,0.96575 0.97772,0.96575 0.53787,0 0.97792,-0.43459 0.97792,-0.96575 z m -588.65882,-3.86302 c 0,-0.53119 -0.44004,-0.96576 -0.9779,-0.96576 -0.53785,0 -0.97788,0.43457 -0.97788,0.96576 0,0.53115 0.44003,0.96573 0.97788,0.96573 0.53786,0 0.9779,-0.43458 0.9779,-0.96573 z m 594.52586,-3.86305 c 0,-0.53117 -0.44008,-0.96577 -0.97798,-0.96577 -0.53758,0 -0.97767,0.4346 -0.97767,0.96577 0,0.53117 0.44009,0.96577 0.97767,0.96577 0.5379,0 0.97798,-0.4346 0.97798,-0.96577 z M 367.11345,793.12641 c 0,-0.53118 -0.44003,-0.96578 -0.97774,-0.96578 -0.53786,0 -0.97789,0.4346 -0.97789,0.96578 0,0.53117 0.44003,0.96576 0.97789,0.96576 0.53771,0 0.97774,-0.43459 0.97774,-0.96576 z m 643.41785,-28.97278 c 0,-0.53118 -0.4399,-0.96576 -0.9778,-0.96576 -0.5379,0 -0.978,0.43458 -0.978,0.96576 0,0.53116 0.4401,0.96577 0.978,0.96577 0.5379,0 0.9778,-0.43461 0.9778,-0.96577 z M 644.81957,910.01893 C 414.56306,886.92171 259.74045,670.81499 327.91008,467.66554 c 1.96061,-5.84285 5.08673,-15.83846 6.94687,-22.21248 18.43186,-63.15752 88.4059,-144.81807 157.06308,-183.29434 46.67825,-26.15897 59.5181,-30.24716 60.59793,-19.29412 0.57585,5.84035 0.17718,6.16718 -13.6897,11.22333 -45.53022,16.60125 -101.85138,57.81286 -134.8216,98.65226 -19.07519,23.628 -22.09143,27.89891 -33.53742,47.48773 -45.20195,77.35909 -58.72019,164.44651 -37.83605,243.74773 4.25726,16.16583 7.73877,25.66365 21.90691,59.76493 13.36921,32.17841 42.28722,67.98564 85.91125,106.37819 57.45951,50.56875 142.7553,84.69279 219.19216,87.69148 71.17165,2.79217 152.31359,-17.20732 201.27851,-49.61019 4.30243,-2.84721 11.7829,-7.27711 16.62321,-9.84426 4.84029,-2.56712 9.24057,-5.14785 9.77843,-5.73494 0.53771,-0.58707 9.33826,-7.60177 19.55673,-15.58822 20.86523,-16.30771 19.1905,-14.75071 39.11365,-36.36364 100.97726,-109.5423 112.28656,-267.2302 28.47443,-397.02453 -20.8033,-32.21668 -79.93394,-88.91802 -106.70168,-102.31813 -3.76458,-1.88463 -10.94701,-6.30455 -15.96067,-9.82206 -10.1947,-7.15228 -19.8291,-11.67313 -39.33522,-18.45751 -12.83811,-4.46524 -16.25608,-10.10372 -10.18825,-16.80752 2.2211,-2.45386 43.11021,14.61708 58.06806,24.243 21.81964,14.04168 51.34709,35.77199 60.8372,44.77217 21.62672,20.51045 37.07239,36.70074 44.74491,46.90195 4.2364,5.63276 10.06367,13.21111 12.94975,16.84076 21.04951,26.47419 41.19543,71.788 54.17133,121.84662 28.9814,111.80351 -14.1549,247.90727 -101.94285,321.65137 -6.28814,5.28222 -12.83482,10.90783 -14.548,12.50133 -10.49598,9.76258 -36.08636,27.24579 -53.68541,36.67752 -6.45373,3.45871 -14.37422,7.84595 -17.60109,9.74941 -40.69945,24.00794 -145.23471,44.13494 -200.45698,38.59555 z m -50.84751,-57.80788 c 0,-2.23593 5.97177,-8.63014 15.15645,-16.22856 33.46834,-27.68809 62.36963,-57.54288 57.69243,-59.59591 -0.80671,-0.35411 -8.06716,-8.0319 -16.13433,-17.06174 -8.06717,-9.02987 -15.21644,-16.85251 -15.88735,-17.38368 -0.67103,-0.53117 -9.03156,-8.03634 -18.57897,-16.67815 -9.54757,-8.64181 -22.62651,-19.9412 -29.06454,-25.10973 -6.43805,-5.16855 -20.51891,-17.71928 -31.29079,-27.8905 -10.77201,-10.17123 -27.50597,-25.07433 -37.18657,-33.11796 -9.68061,-8.04366 -20.6147,-17.7378 -24.29816,-21.54256 -4.02978,-4.16252 -10.65043,-8.18973 -16.62322,-10.11152 -67.2419,-21.63551 -112.43756,-75.5372 -112.57031,-134.25496 -0.0323,-13.99094 4.48331,-14.45223 34.15083,-3.48934 45.28762,16.73496 98.80625,85.24465 98.80625,126.48269 0,3.01589 4.27604,9.18573 12.22308,17.63673 30.56372,32.50189 44.12155,45.83338 53.24258,52.35345 5.40545,3.86402 10.26804,7.56302 10.80575,8.22005 0.53786,0.657 2.41106,1.98945 4.16266,2.961 8.79923,4.88042 72.68534,65.74127 92.71011,88.3199 4.81551,5.42965 4.81551,5.42965 25.8425,-16.1981 21.53437,-22.14958 86.31681,-82.20296 102.29831,-94.83067 29.00368,-22.91706 58.29748,-54.50103 59.70674,-64.37453 4.07436,-28.54764 18.89301,-60.68913 36.62715,-79.44409 24.12086,-25.50931 47.73508,-39.49472 79.56647,-47.12285 4.84032,-1.15994 10.47887,-2.59378 12.53052,-3.18633 8.00543,-2.31229 1.78576,32.80734 -10.66464,60.21861 -15.62523,34.40087 -41.38931,59.37999 -81.0708,78.6009 -31.99249,15.49641 -29.12585,8.85288 17.60109,-40.79219 40.21816,-42.72996 49.29848,-56.15816 37.97454,-56.15816 -11.03518,0 -72.06448,64.88436 -81.75887,86.92331 -13.94491,31.70166 -15.47356,34.01858 -30.0659,45.56965 -7.78541,6.16274 -14.59528,11.68464 -15.13313,12.27086 -2.20014,2.39816 -20.8881,16.85176 -25.57777,19.78236 -2.77364,1.73329 -11.13416,9.50744 -18.57883,17.27587 -7.44482,7.76848 -18.37614,18.45546 -24.29215,23.74889 -47.68093,42.66394 -77.1839,76.3805 -71.60508,81.83177 3.17583,3.10333 3.28348,3.07103 1.88947,-0.56695 -2.30691,-6.02006 7.02989,0.66246 22.86735,16.3664 7.13652,7.07643 21.90838,18.45628 32.82634,25.28854 21.51821,13.46583 21.0644,12.99369 17.33341,18.03307 -4.93828,6.67003 -26.43655,-8.20056 -71.28223,-49.30635 -12.60709,-11.55584 -10.35546,-11.78877 -25.74513,2.66315 -48.53883,45.58101 -68.60526,60.17563 -68.60526,49.89763 z M 493.80671,607.21774 c -0.41346,-0.79676 -2.81221,-5.79455 -5.33063,-11.10622 -12.37196,-26.09396 -75.04418,-95.61018 -86.19711,-95.61018 -12.24993,0 11.93442,34.16415 53.879,76.11224 21.68749,21.68938 41.29247,37.62595 37.64874,30.60416 z m 307.46711,168.54444 c -10.21847,-1.40287 -32.87989,-3.18382 -50.35866,-3.95766 -17.4789,-0.77386 -31.77979,-2.03038 -31.77979,-2.79228 0,-38.70142 104.58644,-65.74037 155.34962,-40.16284 39.30471,19.80408 43.26555,36.3652 9.34808,39.08631 -2.92046,0.2343 -6.77584,1.06507 -8.56718,1.84618 -9.87818,4.30681 -14.34387,0.81567 -14.34387,-11.21329 0,-25.611 -63.3132,-31.81838 -109.51798,-10.73743 -26.26069,11.98146 -24.80801,14.47762 6.05624,10.40555 31.79815,-4.19529 96.17957,-4.83253 93.73611,-0.92777 -0.63569,1.01595 -2.57798,1.30823 -4.31595,0.64952 -2.54349,-0.96394 -2.96798,-0.20502 -2.17562,3.88892 0.54152,2.79764 0.29245,4.66415 -0.55343,4.14778 -0.84601,-0.51633 -2.0998,-0.0412 -2.78624,1.05573 -0.68645,1.09699 -2.04143,1.51022 -3.01126,0.91827 -0.96982,-0.59195 -2.32452,1.13224 -3.01038,3.83152 -0.69728,2.74409 -2.6626,4.91942 -4.45761,4.93417 -1.76569,0.0144 -4.97056,0.37549 -7.12184,0.8022 -2.15116,0.42668 -12.27179,-0.37202 -22.49024,-1.77488 z m 26.40164,-4.84824 c -0.66474,-1.06235 -2.03675,-1.93152 -3.04896,-1.93152 -1.01206,0 -1.84019,0.86917 -1.84019,1.93152 0,1.06234 1.372,1.93152 3.04895,1.93152 1.6768,0 2.50493,-0.86918 1.8402,-1.93152 z m 2.93351,-2.89727 c 0,-0.53118 -0.44003,-0.96577 -0.97788,-0.96577 -0.53772,0 -0.97775,0.43459 -0.97775,0.96577 0,0.53116 0.44003,0.96575 0.97775,0.96575 0.53785,0 0.97788,-0.43459 0.97788,-0.96575 z m 35.20219,0 c 0,-0.53118 -0.44003,-0.96577 -0.97789,-0.96577 -0.53771,0 -0.97774,0.43459 -0.97774,0.96577 0,0.53116 0.44003,0.96575 0.97774,0.96575 0.53786,0 0.97789,-0.43459 0.97789,-0.96575 z m -52.80329,-3.86304 c 0,-0.53118 -0.44003,-0.96576 -0.97789,-0.96576 -0.53771,0 -0.97774,0.43458 -0.97774,0.96576 0,0.53116 0.44003,0.96577 0.97774,0.96577 0.53786,0 0.97789,-0.43461 0.97789,-0.96577 z m 15.64547,0 c 0,-0.53118 -0.44003,-0.96576 -0.97788,-0.96576 -0.53787,0 -0.97789,0.43458 -0.97789,0.96576 0,0.53116 0.44002,0.96577 0.97789,0.96577 0.53785,0 0.97788,-0.43461 0.97788,-0.96577 z m 11.08209,-0.32192 c -0.7171,-0.70822 -1.8905,-0.70822 -2.6076,0 -0.71696,0.70821 -0.13053,1.28769 1.3038,1.28769 1.43419,0 2.0209,-0.57948 1.3038,-1.28769 z m 35.85417,-15.13023 c 0,-0.53117 -0.44002,-0.96576 -0.97788,-0.96576 -0.53788,0 -0.9779,0.43459 -0.9779,0.96576 0,0.53116 0.44002,0.96576 0.9779,0.96576 0.53786,0 0.97788,-0.4346 0.97788,-0.96576 z m -368.8889,24.45616 c -4.43651,-2.07324 -16.31725,-4.86003 -26.40164,-6.1929 -10.08441,-1.33287 -20.53536,-3.30189 -23.22451,-4.37565 -2.689,-1.07375 -5.98922,-1.77477 -7.33379,-1.55785 -14.84417,2.39508 20.05821,-28.62938 42.39899,-37.68815 29.55957,-11.98578 80.99673,-8.44441 104.69147,7.20787 15.51184,10.24671 23.24781,19.88516 10.59057,13.19488 -30.34737,-16.04076 -105.79916,-11.33756 -110.42957,6.88353 -1.28474,5.05513 3.76004,12.34025 6.0316,8.71027 0.66988,-1.07047 2.85271,-1.94633 4.85086,-1.94633 1.99817,0 3.99941,-1.08648 4.44737,-2.4144 1.62282,-4.81135 102.89953,-1.09271 113.5517,4.16935 11.41681,5.63981 9.35807,9.82496 -4.86772,9.89536 -6.8015,0.0335 -21.60697,1.32304 -32.901,2.86527 -37.3969,5.10668 -72.01239,5.63768 -81.40433,1.24875 z m 42.29074,-10.93553 c 0,-0.53116 -0.44004,-0.96577 -0.97789,-0.96577 -0.53772,0 -0.97774,0.43461 -0.97774,0.96577 0,0.53117 0.44002,0.96576 0.97774,0.96576 0.53785,0 0.97789,-0.43459 0.97789,-0.96576 z m 295.30722,9.65758 c 0,-0.53115 0.44002,-0.96575 0.97789,-0.96575 0.53786,0 0.97789,0.4346 0.97789,0.96575 0,0.53119 -0.44003,0.96577 -0.97789,0.96577 -0.53787,0 -0.97789,-0.43458 -0.97789,-0.96577 z m 4.8893,-4.82879 c -0.66488,-1.06233 0.21516,-1.9315 1.95562,-1.9315 1.74045,0 2.62051,0.86917 1.95563,1.9315 -0.66474,1.06233 -1.54479,1.93152 -1.95563,1.93152 -0.41084,0 -1.2909,-0.86919 -1.95562,-1.93152 z m 6.84477,-4.82879 c 0,-1.5935 0.88005,-2.89727 1.95578,-2.89727 1.07557,0 1.95561,1.30377 1.95561,2.89727 0,1.5935 -0.88004,2.89729 -1.95561,2.89729 -1.07573,0 -1.95578,-1.30379 -1.95578,-2.89729 z m -7.17084,-0.32193 c 0.7171,-0.70821 1.89051,-0.70821 2.6076,0 0.7171,0.70823 0.13055,1.28769 -1.30379,1.28769 -1.43405,0 -2.02076,-0.57946 -1.30381,-1.28769 z m 6.1931,-6.4384 c -0.66489,-1.06232 0.21517,-1.9315 1.95563,-1.9315 1.74044,0 2.62051,0.86918 1.95563,1.9315 -0.66474,1.06234 -1.54481,1.93153 -1.95563,1.93153 -0.41084,0 -1.2909,-0.86919 -1.95563,-1.93153 z M 673.15118,726.00614 c -0.48446,-1.32793 -1.11694,-55.86919 -1.40545,-121.20278 -0.52451,-118.7884 -0.52451,-118.7884 -10.81484,-143.38827 -28.55442,-68.26133 -26.72771,-144.48535 4.57701,-190.99262 11.06948,-16.44527 10.6607,-16.56579 24.3033,7.1654 30.71655,53.4308 31.92971,129.71264 2.95698,185.94327 -8.83501,17.14705 -8.83501,17.14705 -8.83501,141.01823 0,123.87116 0,123.87116 -4.9506,123.87116 -2.72274,0 -5.34692,-1.08648 -5.83139,-2.41439 z M 684.16096,438.0358 c 5.42818,-58.50554 0.63583,-124.89176 -9.01602,-124.89176 -9.10285,0 -10.1991,128.79949 -1.25774,147.76118 5.90913,12.53105 7.27043,9.5007 10.27376,-22.86942 z m 23.82762,237.75085 c 1.72726,-53.3183 8.64054,-74.0534 32.91787,-98.7317 20.27191,-20.60665 22.84109,-13.47429 15.52065,43.08758 -5.64659,43.62875 -8.57789,50.62554 -33.02362,78.82234 -16.38076,18.89444 -16.75932,18.32507 -15.4149,-23.17822 z m -75.53876,15.45216 c -24.46934,-23.26692 -26.1809,-28.95564 -31.61259,-105.07355 -1.5797,-22.13828 0.1041,-23.60793 12.49618,-10.9097 25.06059,25.67877 37.04459,57.3633 38.75395,102.46262 1.3236,34.91805 2.21817,34.30215 -19.63754,13.52063 z m -195.26553,0.54205 c -38.68325,-8.05765 -73.38953,-38.84907 -78.98639,-70.07673 -1.45751,-8.13294 14.92412,-9.70059 54.87391,-5.25118 36.20062,4.03183 92.29296,27.67487 111.088,46.82385 12.03094,12.25755 10.72918,13.13112 -7.10366,4.76691 -7.96494,-3.73581 -23.17917,-8.71232 -33.80922,-11.05892 -10.63002,-2.3466 -29.24083,-6.84186 -41.35714,-9.98949 -34.31641,-8.91486 -49.05719,-4.48658 -27.84009,8.36349 14.76467,8.94213 93.2974,26.67572 118.31853,26.71763 12.87755,0.0217 21.79353,7.09155 10.55537,8.37003 -53.54062,6.09085 -81.227,6.44024 -105.73931,1.33441 z m 401.24734,0.61485 c -12.36961,-1.52607 -25.33429,-2.35929 -28.81034,-1.85155 -10.04335,1.46699 -9.0766,-0.98147 6.91942,-17.52558 35.7138,-36.93765 87.72122,-57.76923 149.49885,-59.88188 41.14174,-1.40693 40.09174,-2.31293 25.13076,21.68593 -32.42615,52.01393 -73.20564,67.38537 -152.73869,57.57308 z m 20.65899,-17.01525 c 41.34572,-5.45252 62.85716,-10.52529 82.50304,-19.45567 31.88195,-14.49252 5.8823,-18.66668 -42.53594,-6.82903 -8.06715,1.97231 -19.50787,4.60632 -25.4239,5.85331 -18.20056,3.83641 -45.65078,13.67568 -51.8254,18.57627 -7.36487,5.84528 3.08328,6.36516 37.2822,1.85512 z m -78.14651,-21.49244 c -4.66884,-12.01652 3.17055,-83.05665 10.80267,-97.89248 14.19558,-27.59458 44.33554,-59.35723 56.32482,-59.35723 16.22249,0 -12.10294,98.58015 -35.97531,125.2035 -4.45676,4.97036 -12.25712,14.43148 -17.33415,21.02471 -10.73946,13.94664 -12.22205,15.12918 -13.81803,11.0215 z m 31.41195,-85.13969 c -0.71711,-0.70822 -1.30382,-0.12877 -1.30382,1.28769 0,1.41644 0.58671,1.99591 1.30382,1.28768 0.71694,-0.70824 0.71694,-1.86715 0,-2.57537 z m 2.60744,-5.47263 c 0,-0.53118 -0.44003,-0.96576 -0.97774,-0.96576 -0.53786,0 -0.97789,0.43458 -0.97789,0.96576 0,0.53117 0.44003,0.96577 0.97789,0.96577 0.53771,0 0.97774,-0.4346 0.97774,-0.96577 z m -240.72593,86.87271 c -34.49873,-18.06263 -66.80378,-82.78086 -71.51076,-143.26086 -2.18503,-28.07489 35.26643,3.92833 58.14477,49.68637 18.87762,37.75613 27.94057,101.20534 13.36599,93.57449 z m -29.15754,-80.96417 c 0,-0.46848 -0.88006,-1.38896 -1.95563,-2.04551 -1.07558,-0.65656 -1.95562,-0.27326 -1.95562,0.85178 0,1.12503 0.88004,2.04551 1.95562,2.04551 1.07557,0 1.95563,-0.38329 1.95563,-0.85178 z m -361.77307,40.51851 c -1.09054,-2.83298 -1.98276,-12.61332 -1.98276,-21.73406 0,-16.58321 0,-16.58321 -20.04575,-15.55045 -23.09499,1.18988 -24.93487,0.80587 -24.93487,-5.20395 0,-7.31396 4.29143,-9.03316 21.8626,-8.75824 8.95016,0.14008 17.81319,0.19524 19.69548,0.1227 3.001,-0.1156 3.42619,-2.33238 3.45245,-17.99842 0.0308,-18.65093 1.55448,-23.9905 6.32804,-22.18138 3.22247,1.22128 5.37611,13.57577 5.37611,30.84018 0,11.49979 0,11.49979 18.32201,10.14309 22.67798,-1.67923 26.65848,-0.64584 26.65848,6.92089 0,5.66439 0,5.66439 -21.51237,5.66439 -21.5125,0 -21.5125,0 -21.5125,20.28095 0,11.15452 -0.80803,20.28094 -1.79574,20.28094 -0.98757,0 -3.17553,0.52294 -4.86201,1.16212 -2.10583,0.79806 -3.68743,-0.45142 -5.04917,-3.98879 z m 978.81144,2.47925 c -0.516,-1.40243 -1.1722,-11.13133 -1.4581,-21.61981 -0.5198,-19.06997 -0.5198,-19.06997 -23.4992,-18.73017 -22.979,0.33982 -22.979,0.33982 -22.979,-4.35464 0,-8.36546 4.0567,-9.67651 26.4486,-8.54781 20.4876,1.03271 20.4876,1.03271 20.4876,-19.16846 0,-31.63765 10.4274,-30.7214 11.3156,0.99429 0.5592,19.97312 0.5592,19.97312 19.0754,18.60205 20.2961,-1.50286 24.3681,-0.16308 24.3681,8.01779 0,4.55707 -0.1651,4.59229 -21.5126,4.59229 -24.5116,0 -22.0295,-3.0045 -22.3404,27.04127 -0.1466,14.16979 -6.4536,22.55681 -9.906,13.1732 z M 620.31607,541.55457 C 560.2645,502.0692 513.03314,433.20222 505.82006,374.61067 c -2.64867,-21.51422 -2.03235,-22.36595 13.0496,-18.03568 68.15011,19.56706 120.27063,86.64073 135.8121,174.77648 3.42841,19.44225 2.45931,29.97114 -1.76729,19.20101 -10.10538,-25.74988 -19.06038,-43.28019 -31.73947,-62.13306 -4.20534,-6.25321 -7.64622,-11.72875 -7.64622,-12.16786 0,-1.53731 -26.28297,-34.7961 -38.81774,-49.12051 -14.53734,-16.61278 -24.67673,-25.13715 -29.89986,-25.13715 -7.29522,0 -3.47123,7.08658 24.94016,46.21854 11.23889,15.47972 22.94949,31.62166 26.02337,35.87099 17.47407,24.15591 45.94473,68.41156 44.76222,69.57954 -0.3969,0.39204 -9.49637,-5.05675 -20.22086,-12.1084 z m 81.81707,-3.99812 c 6.04143,-77.3754 46.18205,-139.2129 109.81999,-169.1804 32.3341,-15.22628 42.93978,-16.64374 41.11689,-5.49539 -7.99031,48.86748 -25.19626,87.12958 -54.50355,121.20277 -28.82957,33.5179 -79.4311,75.78253 -79.4311,66.34431 0,-6.21712 42.88696,-72.25191 65.04074,-100.14586 27.29621,-34.36877 35.62462,-49.89898 25.40938,-47.38122 -25.53273,6.29301 -79.45647,79.48993 -99.29336,134.78243 -6.96827,19.42306 -9.68207,19.38097 -8.15899,-0.12661 z M 436.94388,435.90944 c -20.33233,-7.16339 -24.23186,-29.43483 -7.66849,-43.79793 21.52893,-18.66924 52.7738,13.36018 34.24644,35.10659 -4.17982,4.90604 -15.54177,11.86091 -18.60743,11.38988 -0.30333,-0.0467 -3.89014,-1.26097 -7.97052,-2.69854 z m 18.92793,-17.42968 c 6.76997,-10.20454 3.40596,-16.48586 -8.82886,-16.48586 -5.18777,0 -15.39215,7.5852 -15.39215,11.44138 0,9.72109 18.55478,13.58547 24.22101,5.04448 z m 447.71586,14.57316 c -26.21612,-11.90077 -14.1576,-51.01385 13.95913,-45.27812 14.45108,2.948 22.73947,20.20435 15.92106,33.14734 -7.12052,13.51631 -17.52393,17.73992 -29.88019,12.13078 z m 17.82063,-12.84757 c 6.72948,-6.64637 0.77962,-18.21145 -9.36933,-18.21145 -7.3068,0 -11.23874,9.77225 -7.04542,17.51065 2.49246,4.59975 12.05367,5.00797 16.41475,0.7008 z M 570.50394,340.75273 c -13.90018,-5.01851 -21.10679,-23.30906 -14.93351,-37.90137 12.16045,-28.74461 57.01963,-19.02351 53.52494,11.59899 -2.21452,19.40449 -21.42743,32.49927 -38.59143,26.30238 z m 19.93426,-17.46821 c 7.76018,-8.92401 6.24384,-18.61516 -3.40493,-21.7602 -15.48795,-5.0483 -26.53203,14.94543 -12.12906,21.95785 8.23072,4.00736 11.91815,3.96045 15.53399,-0.19765 z m 178.56693,16.7589 c -14.61918,-4.29825 -23.77952,-19.12003 -20.09693,-32.51738 8.18011,-29.75933 52.52827,-24.6959 52.32264,5.9739 -0.12909,19.36508 -14.99541,31.60947 -32.22571,26.54348 z m 15.5868,-17.17777 c 7.38498,-8.05958 2.98075,-19.40036 -7.51464,-19.34962 -12.55985,0.0607 -19.01607,11.37414 -11.00567,19.28561 4.99123,4.92962 14.0332,4.96087 18.52031,0.064 z M 642.86395,306.38374 c 0,-0.53119 0.44002,-0.96577 0.97789,-0.96577 0.53771,0 0.97773,0.43458 0.97773,0.96577 0,0.53116 -0.44002,0.96576 -0.97773,0.96576 -0.53787,0 -0.97789,-0.4346 -0.97789,-0.96576 z m -55.52603,-82.33565 c 0.72119,-4.64514 1.4559,-8.63698 1.6325,-8.87072 1.73136,-2.29124 94.43604,-4.21832 122.67025,-2.55004 58.08494,3.43211 57.7382,3.37203 59.13043,10.24738 1.62343,8.0164 1.71054,7.99182 -17.79176,5.01436 -31.3876,-4.79201 -132.81009,-2.6236 -161.51338,3.45314 -5.43771,1.15121 -5.43903,1.14869 -4.12804,-7.29412 z m -9.96779,-32.26481 c -4.86539,-12.52612 4.57715,-13.96494 89.93983,-13.70464 93.55393,0.2853 111.6046,2.0676 109.65512,10.82723 -1.38799,6.23684 -197.19373,9.05962 -199.59495,2.87741 z m -9.78137,-36.46523 c -3.67863,-7.03294 -12.2049,-17.39077 -22.97926,-27.91569 -20.06158,-19.59697 -19.82046,-18.99927 -7.66455,-18.99927 19.01432,0 38.39606,13.55335 56.77278,39.70023 10.58647,15.06272 10.41956,16.30778 -2.19032,16.34017 -5.64701,0.0144 -12.0274,0.48314 -14.1787,1.04141 -3.18169,0.82572 -5.00224,-1.07073 -9.75995,-10.16685 z m 191.14907,9.61631 c -24.51202,-2.18049 28.48649,-54.98605 55.18706,-54.98605 10.89713,0 10.58707,1.2255 -4.1298,16.3236 -7.50628,7.70068 -17.45721,19.86822 -22.11314,27.03898 -9.23397,14.22174 -7.51156,13.53004 -28.94412,11.62347 z m -44.22848,-1.92221 c -8.30229,-1.22398 0.55415,-33.49492 15.28699,-55.70224 13.07674,-19.711085 21.85734,-0.42951 10.95111,24.04787 -4.35729,9.77926 -7.92239,18.6938 -7.92239,19.81007 0,3.3866 -7.93076,13.26908 -10.40049,12.95988 -1.27124,-0.1592 -4.83311,-0.66118 -7.91522,-1.11558 z m -90.85333,-3.90669 c -0.95941,-1.85912 -4.09842,-9.55508 -6.97561,-17.10217 -2.87733,-7.54712 -7.8391,-17.78321 -11.02635,-22.74691 -5.79501,-9.02488 -5.79501,-9.02488 -0.42698,-11.13081 18.91443,-7.42014 25.1263,0.25641 40.47152,50.01412 1.80646,5.85728 -19.04658,6.77092 -22.04258,0.96577 z m 43.29635,0.25898 c -3.3668,-8.6651 -1.61373,-80.858416 2.21069,-91.040357 11.84759,-31.543098 24.10529,17.991782 19.35769,78.226497 -1.24864,15.84208 -16.80171,25.0822 -21.56838,12.81386 z M 505.81609,95.031035 c -13.89606,-13.724462 1.68634,-36.49367 19.88103,-29.050289 11.91271,4.873484 10.96005,26.925385 -1.38329,32.019059 -9.28503,3.831625 -12.06381,3.385635 -18.49774,-2.96877 z M 821.6129,94.109837 c -11.5755,-11.432406 -6.16302,-28.200144 9.10271,-28.200144 8.52582,0 19.45009,10.789297 19.45009,19.209813 0,15.077124 -16.97743,20.422764 -28.5528,8.990331 z M 590.77365,90.692251 c -5.91074,-2.826683 -9.32799,-10.131451 -9.11957,-19.493482 0.49694,-22.315523 34.72726,-26.020686 38.8707,-4.207437 3.24125,17.064592 -14.34034,31.070894 -29.75113,23.700919 z m 16.13771,-16.298049 c 1.90898,-7.511794 -4.27619,-10.970143 -9.82259,-5.492247 -2.46356,2.433145 -2.58457,3.696374 -0.64712,6.760327 3.42252,5.412623 8.94194,4.74412 10.46971,-1.26808 z m 143.5148,16.629136 c -14.52355,-2.589054 -19.55674,-8.048005 -19.55674,-21.211448 0,-24.049958 35.32834,-23.469371 39.91092,0.655903 2.75723,14.51568 -5.79368,23.151196 -20.35418,20.555545 z m 6.73578,-13.350245 c 1.61901,-2.587142 -0.71901,-7.430309 -4.22895,-8.760594 -4.28118,-1.622535 -10.3295,0.597634 -10.3295,3.79167 0,4.972696 11.99442,9.066482 14.55845,4.968924 z M 726.95802,59.149368 c 0,-0.531169 0.44003,-0.965754 0.9779,-0.965754 0.53785,0 0.97787,0.434585 0.97787,0.965754 0,0.531169 -0.44002,0.965754 -0.97787,0.965754 -0.53787,0 -0.9779,-0.434585 -0.9779,-0.965754 z M 664.7452,42.656211 c -6.48836,-5.970137 -6.0124,-19.545293 0.87271,-24.894309 8.67955,-6.742911 18.64206,-4.636886 23.86283,5.044501 8.42007,15.613934 -11.74902,31.799187 -24.73554,19.849808 z"
       id="path9" />
    <path
       style="fill:#0700c2;stroke-width:1.00234;fill-opacity:0"
       d="m 1.1425418e-7,684.26351 c 0,-682.666629 0,-682.666629 685.86038988574591,-682.666629 685.86041,0 685.86041,0 685.86041,682.666629 0,682.66659 0,682.66659 -685.86041,682.66659 C 1.1425425e-7,1366.9301 1.1425425e-7,1366.9301 1.1425418e-7,684.26351 Z M 681.59499,1116.5968 c 2.43248,-3.4109 2.56551,-5.367 1.90723,-28.0435 -0.70765,-24.3768 -0.70765,-24.3768 17.30716,-23.4769 20.16596,1.0073 27.91728,-0.3632 27.91728,-4.9359 0,-2.7633 -7.66614,-8.2715 -10.19588,-7.3258 -10.0751,3.7663 -35.23234,2.0931 -36.0791,-2.3995 -1.63415,-8.6702 0.54208,-21.7253 4.37785,-26.2627 6.78247,-8.0229 -7.47539,-18.0728 -14.92301,-10.5186 -2.1489,2.1796 -4.40942,3.9629 -5.02339,3.9629 -2.07339,0 -1.13455,3.1422 1.89773,6.3515 7.44176,7.8761 4.95446,31.4347 -3.22211,30.5181 -25.87038,-2.8998 -28.28341,-2.7772 -32.50643,1.6505 -7.33197,7.6875 -1.90523,9.9593 20.99326,8.7885 19.01462,-0.9722 23.43757,9.2688 16.96898,39.2904 -2.50442,11.6233 4.92504,20.3312 10.58043,12.401 z m -124.33342,-59.0691 c 0,-4.4379 -2.97575,-7.1067 -6.635,-5.9507 -5.63625,1.7805 -6.57009,8.6857 -1.81473,13.419 2.82875,2.8155 8.44973,-2.1526 8.44973,-7.4683 z m -32.89545,5.1058 c 2.80164,-3.9813 2.62535,-6.8036 -0.60685,-9.7151 -3.97979,-3.5849 -9.36398,-0.5353 -9.36398,5.3037 0,7.338 6.03303,10.0072 9.97083,4.4114 z m 254.1234,-0.2717 c 2.43334,-5.3157 0.42538,-10.3488 -3.92927,-9.8491 -2.82503,0.3243 -3.73031,1.2214 -4.05457,4.0182 -0.89864,7.7507 5.09967,12.1315 7.98384,5.8309 z m 31.68307,1.635 c 3.18833,-3.1735 1.58763,-13.0666 -2.11418,-13.0666 -2.61219,0 -6.99491,3.8344 -6.99491,6.1198 0,6.7347 5.27813,10.7599 9.10909,6.9468 z m 33.48927,0 c 3.74283,-3.7254 0.16061,-13.1259 -4.9631,-13.0242 -3.25265,0.064 -6.82513,3.279 -6.82513,6.1412 0,6.4526 7.70235,10.9499 11.78823,6.883 z m -5.09037,-9.0666 c 0,-0.9778 0.40187,-1.3778 0.89305,-0.8889 0.49117,0.4889 0.49117,1.2889 0,1.7777 -0.49118,0.4889 -0.89305,0.089 -0.89305,-0.8888 z m -251.90056,7.4067 c 2.17044,-2.6031 1.27961,-7.4691 -1.69719,-9.2706 -3.75833,-2.2745 -8.06799,3.4234 -6.00237,7.9358 1.66684,3.6413 5.25738,4.2637 7.69956,1.3348 z m -257.43291,-58.1347 c 12.17252,-2.5984 22.04659,-14.09497 18.98644,-22.10632 -1.73828,-4.55073 -7.36005,-9.83239 -10.46553,-9.83239 -6.8484,0 -7.13511,-2.44145 -2.0355,-17.33333 6.58248,-19.2222 37.90659,-22.01139 44.92209,-4 5.08336,13.0509 6.23229,20.63501 3.29591,21.75656 -3.70451,1.41493 -2.50244,3.97228 1.52015,3.23403 2.02609,-0.37184 8.80767,-0.2431 15.07017,0.28608 13.20886,1.11615 15.26848,0.23223 9.30585,-3.99377 -4.95365,-3.51088 -10.90954,-15.5777 -17.1448,-34.73581 -6.468,-19.87326 -17.28824,-48.84979 -20.95334,-56.11284 -1.84658,-3.65934 -3.35741,-7.71778 -3.35741,-9.01876 0,-1.99696 -1.69692,-2.50628 -10.89372,-3.26969 -12.5234,-1.03955 -13.63805,-0.66415 -7.95303,2.67843 5.22702,3.0733 5.16736,4.82542 -0.67013,19.67713 -2.62987,6.69092 -6.65159,16.96531 -8.93714,22.83197 -4.11208,10.55506 -7.71441,17.30365 -7.71441,14.45219 0,-1.6636 -5.20965,-3.36766 -6.97521,-2.28157 -0.63359,0.38976 0.37524,1.90436 2.24183,3.36579 4.36867,3.42039 4.27802,6.83484 -0.43965,16.56064 -2.1084,4.34662 -4.29239,9.40295 -4.85331,11.23628 -0.56093,1.83334 -2.70849,6.75338 -4.77237,10.93344 -4.28284,8.6742 -2.14141,9.81546 16.61628,8.85557 9.72899,-0.49786 9.97413,-0.23905 6.49008,6.85183 -6.53248,13.29519 -20.57358,13.44374 -39.99245,0.4231 -6.34115,-4.25183 -14.01301,-9.37084 -17.04859,-11.37557 -3.03558,-2.00473 -9.36861,-4.4179 -14.0734,-5.36259 -11.35127,-2.27927 -13.44257,-105.83447 -2.33678,-115.71127 4.14739,-3.68845 4.14739,-3.68845 -15.24515,-3.77684 -19.39254,-0.0884 -19.39254,-0.0884 -14.4163,4.58454 9.74242,9.14863 11.97719,106.22358 2.70951,117.69789 -5.63697,6.97915 -5.60533,7.04963 2.72779,6.0748 9.7125,-1.1362 21.36122,2.05576 32.65239,8.94735 8.9842,5.48354 12.8078,7.7234 24.22237,14.18946 4.95044,2.80427 13.17289,4.99297 20.70579,5.51147 1.25306,0.086 5.21828,-0.4708 8.81157,-1.2378 z m 36.46488,-70.66124 c -4.0522,-0.55756 -10.53237,-1.07308 -14.40039,-1.14561 -8.48482,-0.15908 -8.43891,1.19775 -0.54124,-15.99788 3.57034,-7.77369 6.89726,-15.78398 7.39317,-17.80064 1.36154,-5.53686 2.55583,-4.46967 6.00451,5.3655 5.98445,17.06689 9.29293,26.31111 10.24822,28.6345 0.52765,1.28333 0.44277,2.24885 -0.18863,2.1456 -0.6314,-0.10325 -4.46343,-0.64392 -8.51564,-1.20147 z m 123.24054,45.62161 c 0,-0.6055 -1.50702,-2.51009 -3.34893,-4.23241 -3.34892,-3.13151 -3.34892,-3.13151 -3.34892,-58.74769 0,-61.75275 -0.5409,-60.07351 18.01672,-55.93403 39.33343,8.77376 37.74093,60.13802 -1.94188,62.6326 -11.00133,0.69158 -11.38635,0.82646 -11.38635,3.98901 0,8.73793 25.91745,6.56818 40.43708,-3.38531 42.24896,-28.96248 9.2863,-81.18678 -46.12901,-73.08439 -3.13057,0.45772 -9.63784,0.0912 -14.46061,-0.8146 -10.67304,-2.00448 -11.50691,-1.39641 -6.25296,4.55966 7.71282,8.7435 8.66205,112.78017 1.10067,120.6333 -3.8717,4.02108 -3.8717,4.02108 5.35828,4.49178 19.16513,0.97737 21.95591,0.96365 21.95591,-0.10792 z m 525.01076,-36.09399 c -0.8689,-61.93137 -0.6183,-65.56547 4.7896,-69.47175 6.4275,-4.6427 6.4095,-4.65129 -10.0483,-4.7981 -16.23715,-0.14484 -16.80434,0.10836 -10.02865,4.47702 4.67185,3.01226 4.67185,3.01226 4.82325,21.33334 0.083,10.07659 0.234,24.47104 0.3349,31.98767 0.2195,16.34601 1.0198,16.18233 -10.53305,2.1541 -13.00951,-15.79693 -23.46268,-28.62432 -27.6803,-33.96731 -9.17004,-11.61684 -18.44548,-21.29767 -22.34725,-23.32395 -4.61543,-2.3969 -20.94621,-2.50977 -17.02975,-0.11769 9.21509,5.62834 8.78596,3.29024 8.78596,47.86978 0,41.60638 -0.61767,47.6261 -5.30168,51.6696 -5.17964,4.47136 -3.4232,5.38332 10.32507,5.3609 13.06081,-0.0213 13.06081,-0.0213 8.74995,-3.80511 -3.66451,-3.21647 -8.20771,-76.18393 -4.74289,-76.17447 0.97895,0.003 9.25712,9.50694 12.77535,14.66755 2.24978,3.3 4.87484,6.9 5.8335,8 0.95864,1.1 9.40131,11.6 18.76149,23.33333 9.36018,11.73333 19.7784,24.22744 23.1517,27.76469 3.3734,3.53724 6.3354,6.99098 6.5826,7.67497 2.3678,6.55391 3.2271,-4.08123 2.7985,-34.63457 z m -455.35306,33.35817 c 0,-0.64354 -0.90422,-1.91701 -2.00936,-2.82993 -9.45687,-7.81195 4.19509,-31.97163 18.08421,-32.00334 24.2286,-0.0553 33.11818,-6.43895 12.06767,-8.66582 -22.08944,-2.33678 -20.42343,-1.46089 -16.69784,-8.77874 1.83169,-3.59784 5.06491,-11.67929 7.18494,-17.95878 2.12002,-6.27949 4.17884,-11.74001 4.57517,-12.13449 1.08533,-1.08028 5.21625,7.79284 11.58043,24.87451 3.14204,8.43333 6.7885,17.73333 8.10326,20.66667 9.84192,21.95817 12.51387,32.05539 8.85264,33.45379 -5.46665,2.08799 -0.98073,3.21287 12.81258,3.21287 14.98959,0 14.98959,0 10.92846,-3.95201 -2.23362,-2.17361 -5.61289,-8.02361 -7.5095,-13 -1.89662,-4.9764 -5.83436,-15.04799 -8.75055,-22.38132 -2.91619,-7.33333 -9.31112,-23.53333 -14.21096,-36 -13.64116,-34.70726 -11.92405,-32.77501 -28.9363,-32.56175 -5.6322,0.0706 -5.80815,0.17753 -2.67915,1.62827 7.75454,3.59533 7.84623,4.11892 2.56989,14.67493 -2.27038,4.5422 -6.88738,15.70405 -10.26,24.80411 -3.37261,9.10005 -7.1615,17.57024 -8.41975,18.82263 -1.25826,1.25239 -2.59997,4.00689 -2.98159,6.12111 -1.90404,10.54871 -14.38324,35.21615 -19.34735,38.24362 -3.94742,2.40741 -1.13206,3.51995 9.97292,3.94099 6.44669,0.24441 12.47476,0.56777 13.39571,0.71857 0.92096,0.1508 1.67447,-0.25235 1.67447,-0.89589 z m 316.33164,-0.75386 c 52.84764,-11.14917 54.85446,-95.0481 2.54008,-106.19234 -26.88965,-5.72815 -57.30248,9.4265 -62.83927,31.31267 -11.55163,45.66207 18.99403,83.59374 60.29919,74.87967 z m -22.68896,-9.63439 c -16.69961,-8.19207 -25.92129,-37.53322 -18.99631,-60.44167 14.94771,-49.44839 67.11876,-32.89902 63.9203,20.2764 -1.94111,32.27153 -22.87036,50.98378 -44.92399,40.16527 z m -166.48481,6.78663 c -3.05788,-3.23756 -6.48176,-81.68079 -4.06055,-93.02987 1.42616,-6.68495 23.97907,0.0883 28.28829,8.49571 3.60543,7.03432 5.34676,6.6988 5.33256,-1.02748 -0.0263,-14.3231 -1.4275,-20.37411 -4.35652,-18.81385 -1.77098,0.94339 -15.55079,1.26281 -41.01109,0.95065 -38.34394,-0.47013 -38.34394,-0.47013 -38.7239,2.86321 -0.20899,1.83333 -1.61588,6.83299 -3.12642,11.11035 -3.33904,9.45501 -2.41178,10.98207 2.82716,4.65592 5.80819,-7.01352 11.30773,-9.09961 23.98927,-9.09961 10.84901,0 10.84901,0 10.84901,44.73033 0,44.73033 0,44.73033 -3.34892,47.81956 -5.00001,4.61227 -4.5842,4.78344 11.61985,4.78344 14.96879,0 14.96879,0 11.72126,-3.43836 z m 65.48586,-0.61689 c -3.0707,-4.1318 -3.09739,-4.51173 -3.4806,-49.55745 -0.38618,-45.39372 -0.38618,-45.39372 11.01331,-44.79819 12.93712,0.67586 15.04232,1.88493 19.6005,11.25703 8.29877,17.06314 1.29068,29.36072 -18.59469,32.62943 -8.53565,1.40307 -9.31578,1.76461 -6.65589,3.08453 1.65719,0.82235 7.98339,8.98274 14.05823,18.13421 6.07484,9.15146 11.51075,17.23937 12.0798,17.97312 0.56904,0.73375 3.14342,4.11385 5.72087,7.51133 4.43041,5.84001 5.11759,6.22211 12.58753,6.99924 17.12112,1.78117 20.56602,0.73472 12.25204,-3.7218 -5.60187,-3.00276 -14.04708,-13.47066 -24.04174,-29.79994 -9.36962,-15.30808 -9.24125,-14.22611 -2.13515,-17.99618 20.22289,-10.72907 19.41923,-40.26308 -1.37643,-50.58235 -13.03032,-6.46594 -61.72234,-6.27539 -55.38459,0.21673 6.70844,6.87185 7.18133,91.15908 0.54604,97.3285 -5.27122,4.90113 -4.92317,5.05232 12.16572,5.2849 14.73947,0.2006 14.73947,0.2006 11.64505,-3.96311 z m 298.97883,2.48172 c 0,-0.64726 -0.8576,-1.50439 -1.9058,-1.90474 -1.0481,-0.40035 -2.2175,-1.53657 -2.5986,-2.52494 -0.5875,-1.52385 7.2395,-27.8302 8.7182,-29.30214 2.0141,-2.00471 37.7481,-0.92247 38.9296,1.17902 6.8089,12.11008 9.7161,28.89566 5.3651,30.97696 -1.4055,0.67233 3.9294,1.36518 13.7816,1.78984 17.9823,0.77508 18.7756,0.63721 14.1149,-2.45289 -1.8147,-1.20317 -4.1237,-3.13814 -5.131,-4.29993 -3.3046,-3.81132 -14.7336,-32.08111 -23.6725,-58.55431 -12.0607,-35.7187 -14.5086,-39.52934 -26.0143,-40.4974 -10.8213,-0.91049 -13.2699,-0.34458 -7.6732,1.77342 5.1365,1.94379 5.3852,3.97613 1.6558,13.53488 -1.8288,4.68734 -4.9694,13.92243 -6.9792,20.52243 -7.971,26.17719 -7.5229,25.38712 -14.1441,24.93543 -4.3319,-0.29551 -5.3158,-0.0434 -3.8234,0.97958 1.1051,0.75762 3.1048,1.38668 4.4438,1.39791 1.9012,0.0159 2.2333,0.67766 1.516,3.02041 -2.1922,7.16036 -15.6565,33.02225 -18.6764,35.8732 -4.702,4.43898 -4.6877,4.44597 9.3704,4.59511 6.9977,0.0742 12.7231,-0.39459 12.7231,-1.04184 z m 32.1497,-41.96533 c -2.5787,-0.24499 -9.0297,-0.79744 -14.3356,-1.22767 -9.6471,-0.78224 -9.6471,-0.78224 -6.1749,-8.34119 1.9098,-4.15742 5.3152,-12.82833 7.5676,-19.2687 3.9678,-11.34591 7.2941,-13.03395 7.5372,-3.82508 0.026,0.98917 0.8798,3.68917 1.8971,6 1.0173,2.31083 3.1938,8.1015 4.8366,12.86817 1.6429,4.76667 3.5231,9.23667 4.1784,9.93333 1.4478,1.53922 1.5832,4.81655 0.1868,4.51995 -0.5525,-0.11736 -3.1145,-0.41383 -5.6932,-0.65881 z m -776.39466,37.87219 c 4.60929,-11.35252 2.95608,-18.60685 -2.49193,-10.93467 -1.51421,2.13238 -4.49717,5.56103 -6.6288,7.61922 -3.73649,3.60774 -3.78461,3.81081 -1.33958,5.65307 4.47557,3.37222 8.5079,2.4711 10.46031,-2.33762 z M 709.54085,837.5377 c 68.80575,-9.14332 134.90487,-43.00073 172.98664,-88.60753 4.89868,-5.86667 9.22318,-10.96667 9.60999,-11.33333 20.62362,-19.54936 43.18808,-65.03965 52.57897,-106 6.08767,-26.55264 6.84008,-32.77644 6.77,-55.99999 -0.0951,-31.50318 -2.89508,-48.35194 -14.16351,-85.22771 -3.05741,-10.00537 -19.88518,-44.71064 -25.98996,-53.6012 -2.07547,-3.02256 -6.10803,-9.02256 -8.96125,-13.33333 -9.69738,-14.65122 -38.2135,-45.11855 -51.7441,-55.28467 -3.31544,-2.49103 -7.23368,-5.62333 -8.70722,-6.96065 -12.81202,-11.62778 -67.7855,-38.69362 -73.87027,-36.36954 -5.34779,2.04258 -1.99232,9.43757 5.03636,11.09941 12.62844,2.98582 44.78129,18.97205 52.92982,26.31642 0.83068,0.74871 2.85796,2.26128 4.50507,3.36128 133.55477,89.19272 151.37362,281.37486 36.05169,388.82958 -18.21027,16.96797 -42.82082,36.50373 -45.98629,36.50373 -0.3945,0 -3.89372,2.00855 -7.77603,4.46346 C 753.30434,833.02126 665.39803,841.09024 593.16882,815.5547 445.12268,763.21523 374.76438,612.98158 434.27001,476.26352 c 7.61701,-17.50058 23.12966,-44.19484 27.89392,-48 0.45908,-0.36666 2.87506,-3.66666 5.36883,-7.33333 23.29785,-34.25549 69.15141,-68.90872 112.78437,-85.23533 4.63339,-1.73372 8.36408,-3.81503 8.2904,-4.62511 -0.0736,-0.81009 -0.22438,-2.68432 -0.3349,-4.16496 -0.41287,-5.53158 -39.78948,10.35065 -58.06783,23.42119 -3.54129,2.53232 -6.77894,4.60421 -7.19478,4.60421 -0.83234,0 -9.58824,6.35804 -12.39423,9 -0.97359,0.91667 -2.36354,1.66667 -3.0888,1.66667 -4.5009,0 -45.39252,44.20771 -56.70443,61.30287 -44.42823,67.14226 -57.94571,153.36843 -34.50448,220.09927 1.40354,3.99548 3.64662,10.56451 4.98464,14.59784 11.15528,33.62661 31.54798,65.45787 61.40427,95.84679 22.19194,22.58784 71.90836,56.1532 83.17313,56.1532 1.03111,0 2.07569,0.53785 2.32128,1.19521 0.78929,2.11268 44.17188,15.97188 58.98918,18.84495 23.54746,4.56585 63.20795,6.44446 82.35027,3.90071 z m -39.08553,-2.60754 c -0.4714,-0.7592 0.68223,-1.33333 2.67914,-1.33333 1.99692,0 3.15055,0.57413 2.67914,1.33333 -0.45534,0.73334 -1.66095,1.33334 -2.67914,1.33334 -1.01818,0 -2.2238,-0.6 -2.67914,-1.33334 z m 7.36764,0.66667 c 0,-0.36667 0.3014,-0.66667 0.66979,-0.66667 0.36838,0 0.66978,0.3 0.66978,0.66667 0,0.36667 -0.3014,0.66667 -0.66978,0.66667 -0.36839,0 -0.66979,-0.3 -0.66979,-0.66667 z m -34.38232,-1.55555 c 0.49117,-0.48889 1.29492,-0.48889 1.78609,0 0.49118,0.48888 0.0893,0.88888 -0.89304,0.88888 -0.98236,0 -1.38423,-0.4 -0.89305,-0.88888 z m 20.98661,0.22222 c 0,-0.36667 0.30141,-0.66667 0.66978,-0.66667 0.36839,0 0.66979,0.3 0.66979,0.66667 0,0.36666 -0.3014,0.66666 -0.66979,0.66666 -0.36837,0 -0.66978,-0.3 -0.66978,-0.66666 z m 79.03469,-9.33333 c 0,-0.36667 0.30141,-0.66667 0.66979,-0.66667 0.36838,0 0.66978,0.3 0.66978,0.66667 0,0.36666 -0.3014,0.66666 -0.66978,0.66666 -0.36838,0 -0.66979,-0.3 -0.66979,-0.66666 z m 13.39571,-1.33334 c 0,-0.36666 0.30141,-0.66666 0.66979,-0.66666 0.36839,0 0.66979,0.3 0.66979,0.66666 0,0.36667 -0.3014,0.66667 -0.66979,0.66667 -0.36838,0 -0.66979,-0.3 -0.66979,-0.66667 z m -181.51187,-8.0677 c -4.01872,-1.94743 -4.01872,-1.94743 0,-1.17885 2.21029,0.42272 4.59138,1.32613 5.2913,2.00757 1.88197,1.83227 -0.60333,1.44302 -5.2913,-0.82872 z m 198.92629,1.40104 c 0,-0.36667 0.30141,-0.66667 0.66979,-0.66667 0.36839,0 0.66979,0.3 0.66979,0.66667 0,0.36666 -0.3014,0.66666 -0.66979,0.66666 -0.36838,0 -0.66979,-0.3 -0.66979,-0.66666 z m -206.96372,-6 c 0.45534,-0.73334 1.1293,-1.33334 1.49769,-1.33334 0.36838,0 0.29723,0.6 -0.15812,1.33334 -0.45534,0.73333 -1.1293,1.33333 -1.49769,1.33333 -0.36838,0 -0.29723,-0.6 0.15812,-1.33333 z m 231.076,-4.66667 c 0,-0.36667 0.30141,-0.66667 0.66979,-0.66667 0.36839,0 0.66979,0.3 0.66979,0.66667 0,0.36667 -0.3014,0.66667 -0.66979,0.66667 -0.36838,0 -0.66979,-0.3 -0.66979,-0.66667 z m -242.01583,-1.55556 c 0.49118,-0.48888 1.29492,-0.48888 1.7861,0 0.49117,0.48889 0.0893,0.88889 -0.89305,0.88889 -0.98236,0 -1.38423,-0.4 -0.89305,-0.88889 z m 246.70434,-0.44444 c 0.45534,-0.73333 1.12931,-1.33333 1.49768,-1.33333 0.36839,0 0.29724,0.6 -0.15812,1.33333 -0.45534,0.73333 -1.12929,1.33333 -1.49768,1.33333 -0.36838,0 -0.29723,-0.6 0.15812,-1.33333 z m -254.41157,-2.49445 c -0.39654,-0.63862 -2.39124,-1.50136 -4.43267,-1.91721 -6.11139,-1.24492 -9.34039,-4.20358 -4.86753,-4.46002 2.0048,-0.11493 2.87615,0.22544 1.98324,0.77472 -0.96942,0.59634 0.50081,1.60402 3.75713,2.57509 4.99955,1.49093 8.61933,4.18854 5.62036,4.18854 -0.73676,0 -1.664,-0.52251 -2.06053,-1.16112 z m -16.85157,-8.83888 c 0,-0.36667 0.3014,-0.66667 0.66978,-0.66667 0.36838,0 0.66979,0.3 0.66979,0.66667 0,0.36666 -0.30141,0.66666 -0.66979,0.66666 -0.36838,0 -0.66978,-0.3 -0.66978,-0.66666 z m -7.59091,-4.22222 c 0.49118,-0.48889 1.29492,-0.48889 1.7861,0 0.49118,0.48888 0.0893,0.88888 -0.89305,0.88888 -0.98235,0 -1.38423,-0.4 -0.89305,-0.88888 z m -3.92337,-3.31713 c -0.5922,-0.95373 -0.36746,-1.17741 0.59073,-0.58797 1.54419,0.94992 2.07321,2.12732 0.95582,2.12732 -0.3249,0 -1.02085,-0.69271 -1.54655,-1.53935 z m -7.98837,-5.72767 c -2.51138,-1.86758 -2.49724,-1.90784 0.41376,-1.17782 1.65772,0.41572 3.01404,1.28588 3.01404,1.93368 0,1.58672 -0.39469,1.49969 -3.4278,-0.75586 z m 334.97163,-2.06632 c 0.45535,-0.73333 1.1293,-1.33333 1.49769,-1.33333 0.36838,0 0.29723,0.6 -0.15812,1.33333 -0.45534,0.73334 -1.1293,1.33334 -1.49768,1.33334 -0.36839,0 -0.29724,-0.6 0.15811,-1.33334 z m -344.93955,-5.99999 c 0,-0.36667 0.3014,-0.66667 0.66979,-0.66667 0.36838,0 0.66978,0.3 0.66978,0.66667 0,0.36666 -0.3014,0.66666 -0.66978,0.66666 -0.36839,0 -0.66979,-0.3 -0.66979,-0.66666 z m -5.35828,-5.33334 c 0,-0.36666 0.3014,-0.66666 0.66978,-0.66666 0.36838,0 0.66978,0.3 0.66978,0.66666 0,0.36667 -0.3014,0.66667 -0.66978,0.66667 -0.36838,0 -0.66978,-0.3 -0.66978,-0.66667 z m -2.67915,-2.66666 c 0,-0.36667 0.3014,-0.66667 0.66979,-0.66667 0.36838,0 0.66979,0.3 0.66979,0.66667 0,0.36666 -0.30141,0.66666 -0.66979,0.66666 -0.36839,0 -0.66979,-0.3 -0.66979,-0.66666 z m 375.06046,-7.98003 c 2.48865,-2.55568 4.78731,-4.38542 5.10814,-4.06608 1.0288,1.024 -5.68659,8.56249 -7.69572,8.639 -1.15623,0.044 -0.11302,-1.79959 2.58758,-4.57292 z m -380.41874,2.64669 c 0,-0.36666 0.3014,-0.66666 0.66979,-0.66666 0.36838,0 0.66979,0.3 0.66979,0.66666 0,0.36667 -0.30141,0.66667 -0.66979,0.66667 -0.36839,0 -0.66979,-0.3 -0.66979,-0.66667 z m -8.69773,-7.31806 c -0.4693,-0.75581 0.0684,-0.97934 1.26052,-0.52401 2.32069,0.88639 2.74529,1.84207 0.81841,1.84207 -0.69328,0 -1.6288,-0.59312 -2.07893,-1.31806 z m -2.01883,-3.3486 c 0,-0.36667 0.3014,-0.66667 0.66978,-0.66667 0.36838,0 0.66978,0.3 0.66978,0.66667 0,0.36666 -0.3014,0.66666 -0.66978,0.66666 -0.36838,0 -0.66978,-0.3 -0.66978,-0.66666 z m 400.53174,0 c 0,-0.36667 0.30141,-0.66667 0.66979,-0.66667 0.36838,0 0.66978,0.3 0.66978,0.66667 0,0.36666 -0.3014,0.66666 -0.66978,0.66666 -0.36838,0 -0.66979,-0.3 -0.66979,-0.66666 z m -403.21089,-2.66667 c 0,-0.36667 0.3014,-0.66667 0.66979,-0.66667 0.36838,0 0.66978,0.3 0.66978,0.66667 0,0.36667 -0.3014,0.66667 -0.66978,0.66667 -0.36839,0 -0.66979,-0.3 -0.66979,-0.66667 z m 407.22961,-2.66667 c 0,-0.36666 0.3014,-0.66666 0.66979,-0.66666 0.36837,0 0.66977,0.3 0.66977,0.66666 0,0.36667 -0.3014,0.66667 -0.66977,0.66667 -0.36839,0 -0.66979,-0.3 -0.66979,-0.66667 z m -417.94618,-9.33333 c 0,-0.36667 0.3014,-0.66667 0.66979,-0.66667 0.36838,0 0.66979,0.3 0.66979,0.66667 0,0.36667 -0.30141,0.66667 -0.66979,0.66667 -0.36839,0 -0.66979,-0.3 -0.66979,-0.66667 z m 440.71888,-20 c 0,-0.36666 0.3014,-0.66666 0.66979,-0.66666 0.36838,0 0.66979,0.3 0.66979,0.66666 0,0.36667 -0.30141,0.66667 -0.66979,0.66667 -0.36839,0 -0.66979,-0.3 -0.66979,-0.66667 z m -192.89823,98.58364 c 23.79569,-3.73931 69.16886,-17.47542 81.04405,-24.53498 2.21029,-1.31398 7.63556,-4.3425 12.05614,-6.73006 12.05475,-6.51076 29.5833,-18.57946 36.77266,-25.3186 1.17348,-1.1 5.65767,-4.98337 9.96487,-8.62972 52.87785,-44.76488 83.25104,-124.84286 74.60872,-196.7036 -4.41706,-36.72768 -23.16565,-85.71503 -41.88694,-109.44444 -1.97675,-2.50556 -5.96832,-7.7369 -8.87015,-11.62522 -5.25536,-7.04193 -15.83509,-18.21813 -30.64867,-32.37657 -6.50033,-6.21285 -26.72562,-21.21335 -41.6713,-30.90636 -10.24564,-6.6448 -38.25329,-18.42892 -39.77463,-16.73503 -4.15625,4.62766 -1.81512,8.51992 6.97857,11.60228 13.36097,4.68329 19.96023,7.80404 26.94322,12.74129 3.43424,2.42814 8.3539,5.47923 10.93258,6.78019 18.33497,9.25014 58.8373,48.39125 73.08685,70.63053 57.4085,89.59742 49.66201,198.44987 -19.50401,274.06726 -13.64662,14.91948 -12.49947,13.84467 -26.79143,25.10194 -6.99925,5.51307 -13.02732,10.35534 -13.3957,10.76061 -0.36838,0.40526 -3.38242,2.18674 -6.69785,3.95884 -3.31544,1.7721 -8.4393,4.83009 -11.38637,6.79552 -16.2391,10.83011 -50.48625,24.18095 -75.01597,29.2441 -65.66493,13.55381 -125.00815,2.00108 -188.87953,-36.77042 -30.16536,-18.31112 -71.38405,-64.11877 -82.95855,-92.19451 -9.70468,-23.54022 -12.08933,-30.09659 -15.00544,-41.25592 -14.30487,-54.74187 -5.04534,-114.85859 25.91639,-168.25982 26.09841,-45.01322 71.59571,-84.81382 115.3201,-100.88089 9.49834,-3.49028 9.77139,-3.71588 9.377,-7.7475 -0.73964,-7.56091 -9.53454,-4.73883 -41.5075,13.31881 -47.02781,26.56029 -94.95764,82.93081 -107.58277,126.52865 -1.27415,4.39999 -3.41544,11.29999 -4.75842,15.33333 -53.77881,161.51318 98.70944,330.69117 273.33408,303.25029 z m -79.51695,-41.04593 c 7.79225,-5.75306 18.49365,-15.17867 35.41836,-31.19587 10.54143,-9.97622 8.99909,-9.81543 17.63456,-1.8384 30.71766,28.37547 45.44329,38.64067 48.82582,34.03633 2.55558,-3.47868 2.86642,-3.15278 -11.87281,-12.44827 -7.47839,-4.71634 -17.59658,-12.57189 -22.48488,-17.45677 -10.84807,-10.84048 -17.24352,-15.45344 -15.66335,-11.29778 0.9549,2.51131 0.88116,2.53361 -1.29425,0.39137 -3.82129,-3.76303 16.38722,-27.03768 49.04706,-56.48872 4.05221,-3.65407 11.53985,-11.03134 16.63921,-16.39393 5.09936,-5.36258 10.82603,-10.7291 12.72592,-11.9256 3.21229,-2.02299 16.01284,-12.00036 17.51987,-13.65582 0.36837,-0.40467 5.03291,-4.21645 10.36563,-8.47062 9.99528,-7.97373 11.04235,-9.57311 20.59409,-31.45686 6.64036,-15.21356 48.44333,-60.00342 56.00199,-60.00342 7.75652,0 1.53688,9.26951 -26.01123,38.76613 -32.00631,34.27015 -33.96982,38.85621 -12.05614,28.15899 27.18052,-13.26826 44.82802,-30.51142 55.53071,-54.25846 8.52811,-18.92208 12.78834,-43.16526 7.3049,-41.56909 -1.4052,0.40904 -5.26754,1.39883 -8.58298,2.19954 -21.80337,5.26571 -37.9783,14.91989 -54.50026,32.52905 -12.14726,12.9466 -22.29751,35.13398 -25.08835,54.8405 -0.96525,6.81571 -21.03046,28.61822 -40.89698,44.43795 -10.94681,8.71694 -55.32052,50.17197 -70.0708,65.46189 -14.40279,14.92972 -14.40279,14.92972 -17.70125,11.1816 -13.71628,-15.5861 -57.47601,-57.59853 -63.50315,-60.96749 -1.19983,-0.67066 -2.4829,-1.59046 -2.85129,-2.044 -0.36838,-0.45354 -3.69911,-3.00698 -7.40162,-5.67432 -6.24758,-4.50083 -15.53426,-13.70359 -36.46932,-36.13975 -5.44344,-5.83375 -8.37233,-10.09281 -8.37233,-12.17469 0,-28.46675 -36.65846,-75.7592 -67.6789,-87.31139 -20.32121,-7.56773 -23.41381,-7.24929 -23.39213,2.4087 0.091,40.53305 31.04839,77.74155 77.10677,92.67662 4.09116,1.32661 8.62611,4.10661 11.38636,6.98002 2.52299,2.62642 10.01252,9.31832 16.6434,14.87088 6.63087,5.55256 18.09303,15.8402 25.47145,22.86143 7.3784,7.02123 17.02332,15.68504 21.43313,19.2529 4.40981,3.56786 13.36849,11.36786 19.90819,17.33333 6.53969,5.96547 12.26634,11.14631 12.72591,11.51298 0.45957,0.36667 5.35664,5.76667 10.88237,12 5.52573,6.23333 10.49889,11.53333 11.05146,11.77778 3.20366,1.41722 -16.59268,22.02606 -39.51734,41.13924 -15.21076,12.6818 -14.21445,19.32883 1.1922,7.95402 z m -90.73112,-172.5377 c -25.94276,-23.3968 -54.79987,-57.35414 -54.79987,-64.48527 0,-12.63446 50.17408,38.99473 61.69601,63.48527 1.72505,3.66667 3.36814,7.11667 3.65134,7.66667 1.54249,2.99573 -3.05754,0.0882 -10.54748,-6.66667 z m 241.43501,123.68486 c 1.22953,-0.0102 2.57566,-1.51183 3.05331,-3.40607 0.46985,-1.86332 1.39776,-3.05353 2.06201,-2.64491 0.66425,0.40862 1.59245,0.12337 2.06265,-0.63389 0.4702,-0.75726 1.32899,-1.0852 1.9084,-0.72876 0.57943,0.35643 0.75004,-0.93202 0.37914,-2.86323 -0.54277,-2.82606 -0.25195,-3.34996 1.49018,-2.68455 1.1905,0.45471 2.52084,0.25295 2.95629,-0.44836 1.67368,-2.69545 -42.42535,-2.25557 -64.20602,0.64045 -21.14085,2.81095 -22.13595,1.08787 -4.14826,-7.18299 31.64868,-14.55225 75.01597,-10.26726 75.01597,7.4121 0,8.30361 3.05893,10.71355 9.82506,7.74054 1.2271,-0.53919 3.8678,-1.11267 5.86822,-1.27441 23.23235,-1.87839 20.51934,-13.31059 -6.40305,-26.98141 -34.77101,-17.65624 -106.40913,1.00883 -106.40913,27.72455 0,0.52593 9.79562,1.3933 21.76804,1.9275 11.97241,0.53419 27.49469,1.76359 34.49395,2.73199 6.99926,0.96841 13.93153,1.51974 15.40507,1.2252 1.47353,-0.29455 3.6687,-0.54373 4.87817,-0.55375 z m -5.54796,-4.0182 c 0,-0.73333 0.56723,-1.33333 1.26052,-1.33333 0.69328,0 1.63306,0.6 2.08841,1.33333 0.45534,0.73333 -0.11189,1.33333 -1.26052,1.33333 -1.14863,0 -2.08841,-0.6 -2.08841,-1.33333 z m 4.01871,-2 c 0,-0.36667 0.3014,-0.66667 0.66979,-0.66667 0.36839,0 0.66979,0.3 0.66979,0.66667 0,0.36667 -0.3014,0.66667 -0.66979,0.66667 -0.36839,0 -0.66979,-0.3 -0.66979,-0.66667 z m 24.11228,0 c 0,-0.36667 0.3014,-0.66667 0.66979,-0.66667 0.36839,0 0.66979,0.3 0.66979,0.66667 0,0.36667 -0.3014,0.66667 -0.66979,0.66667 -0.36839,0 -0.66979,-0.3 -0.66979,-0.66667 z m -36.16841,-2.66667 c 0,-0.36666 0.3014,-0.66666 0.66978,-0.66666 0.36838,0 0.66979,0.3 0.66979,0.66666 0,0.36667 -0.30141,0.66667 -0.66979,0.66667 -0.36838,0 -0.66978,-0.3 -0.66978,-0.66667 z m 10.71656,0 c 0,-0.36666 0.30141,-0.66666 0.66979,-0.66666 0.36838,0 0.66978,0.3 0.66978,0.66666 0,0.36667 -0.3014,0.66667 -0.66978,0.66667 -0.36838,0 -0.66979,-0.3 -0.66979,-0.66667 z m 7.14438,-0.22222 c 0.49118,-0.48889 1.29492,-0.48889 1.7861,0 0.49118,0.48889 0.0893,0.88889 -0.89305,0.88889 -0.98235,0 -1.38423,-0.4 -0.89305,-0.88889 z m 25.00533,-10.44444 c 0,-0.36667 0.3014,-0.66667 0.66979,-0.66667 0.36837,0 0.66978,0.3 0.66978,0.66667 0,0.36666 -0.30141,0.66666 -0.66978,0.66666 -0.36839,0 -0.66979,-0.3 -0.66979,-0.66666 z m -195.57738,16.02015 c 7.73602,-1.06462 17.87725,-1.95467 22.53604,-1.97791 9.74423,-0.0486 11.15442,-2.93762 3.33424,-6.83079 -7.29639,-3.63242 -76.66738,-6.1994 -77.77899,-2.87812 -0.3068,0.91667 -1.67762,1.66667 -3.04627,1.66667 -1.36866,0 -2.86387,0.6046 -3.32271,1.34356 -1.55591,2.50578 -5.01135,-2.52316 -4.13142,-6.01274 3.17166,-12.57807 54.85358,-15.82471 75.64045,-4.75172 8.66978,4.61833 3.37087,-2.03512 -7.25414,-9.10847 -16.23009,-10.8048 -51.46281,-13.24943 -71.71005,-4.97561 -15.3027,6.25329 -39.20958,27.66959 -29.0418,26.01627 0.92095,-0.14975 3.18148,0.33416 5.0234,1.07537 1.8419,0.74121 9.00046,2.10044 15.9079,3.02053 6.90744,0.92008 15.04533,2.84381 18.08421,4.27497 6.43319,3.02969 30.14354,2.66314 55.75914,-0.86201 z m -28.13098,-6.68682 c 0,-0.36667 0.3014,-0.66667 0.66977,-0.66667 0.36839,0 0.66979,0.3 0.66979,0.66667 0,0.36667 -0.3014,0.66667 -0.66979,0.66667 -0.36837,0 -0.66977,-0.3 -0.66977,-0.66667 z m 204.95436,6.66666 c 0,-0.36666 -0.3014,-0.66666 -0.66978,-0.66666 -0.36838,0 -0.66979,0.3 -0.66979,0.66666 0,0.36667 0.30141,0.66667 0.66979,0.66667 0.36838,0 0.66978,-0.3 0.66978,-0.66667 z m 4.6885,-3.33333 c 0.45534,-0.73333 -0.14746,-1.33333 -1.33956,-1.33333 -1.19212,0 -1.79492,0.6 -1.33958,1.33333 0.45535,0.73334 1.05816,1.33334 1.33958,1.33334 0.28142,0 0.88422,-0.6 1.33956,-1.33334 z m 4.68851,-3.33333 c 0,-1.1 -0.60281,-2 -1.33958,-2 -0.73676,0 -1.33957,0.9 -1.33957,2 0,1.1 0.60281,2 1.33957,2 0.73677,0 1.33958,-0.9 1.33958,-2 z m -5.80481,-0.22222 c -0.49118,-0.48889 -1.29492,-0.48889 -1.7861,0 -0.49118,0.48889 -0.0893,0.88889 0.89305,0.88889 0.98235,0 1.38422,-0.4 0.89305,-0.88889 z m 5.13502,-4.44445 c 0.45534,-0.73333 -0.14747,-1.33333 -1.33957,-1.33333 -1.19211,0 -1.79492,0.6 -1.33958,1.33333 0.45535,0.73334 1.05816,1.33334 1.33958,1.33334 0.28141,0 0.88422,-0.6 1.33957,-1.33334 z M 683.18124,602.75485 c 0,-85.50866 0,-85.50866 6.05165,-97.34531 19.84529,-38.81618 19.01441,-91.47378 -2.02535,-128.35722 -9.34477,-16.38172 -9.06477,-16.29852 -16.64702,-4.94631 -21.44263,32.10413 -22.6938,84.7218 -3.13503,131.84281 7.04855,16.98136 7.04855,16.98136 7.40781,98.98136 0.39292,89.67951 0.14045,85.33333 4.95697,85.33333 3.39097,0 3.39097,0 3.39097,-85.50866 z m -6.88109,-99.158 c -3.74067,-7.99445 -5.7972,-90.06707 -2.45793,-98.09125 8.00824,-19.24356 14.03472,32.99463 9.49508,82.30442 -2.05718,22.3452 -2.98964,24.43707 -7.03715,15.78683 z m 33.91694,164.33332 c 16.74438,-19.46434 18.75227,-24.29423 22.61997,-54.41131 5.01421,-39.04483 3.25443,-43.96832 -10.6311,-29.74349 -16.62915,17.03551 -21.36447,31.34901 -22.54758,68.15481 -0.92094,28.64984 -0.66156,29.04288 10.55871,15.99999 z m -48.84908,-14.66666 c -1.17095,-31.13219 -9.3795,-53.00413 -26.54515,-70.73025 -8.48847,-8.76563 -9.64151,-7.75113 -8.55944,7.53099 3.72048,52.54443 4.89281,56.47136 21.65356,72.53259 14.97033,14.34555 14.35762,14.7707 13.45103,-9.33333 z m -95.46094,10.89751 c 28.77598,-2.79226 27.15113,-2.41045 22.69688,-5.33321 -2.18217,-1.43188 -6.2268,-2.55069 -9.23946,-2.55578 -17.13856,-0.0289 -70.93082,-12.27049 -81.04406,-18.44327 -14.53297,-8.87044 -4.43609,-11.9273 19.06949,-5.77334 8.29927,2.17282 21.04697,5.27592 28.32821,6.89577 7.28125,1.61986 17.70241,5.05516 23.15814,7.63401 12.21492,5.77383 13.10658,5.17081 4.86576,-3.29061 -12.87397,-13.2186 -51.29523,-29.53947 -76.09138,-32.32265 -37.86797,-4.2504 -41.91176,-2.30666 -33.19962,15.95824 14.13711,29.63829 48.76104,42.34407 101.45604,37.23084 z m 275.86057,-1.19195 c 25.90265,-6.59394 58.42412,-35.82702 58.42412,-52.51661 0,-7.834 -52.48302,-1.01935 -83.05341,10.78406 -25.3051,9.77045 -64.61793,43.3469 -47.86511,40.88082 2.38097,-0.3505 11.26134,0.22466 19.73412,1.27813 22.91928,2.84967 40.44752,2.70801 52.76028,-0.4264 z m -64.14663,-12.59989 c 4.22934,-3.38289 23.03185,-10.17496 35.49863,-12.82326 4.0522,-0.8608 11.88869,-2.67905 17.41442,-4.04054 33.16488,-8.17157 50.97374,-5.29014 29.13567,4.71409 -23.38261,10.71181 -93.17104,21.04602 -82.04872,12.14971 z M 759.09525,629.2053 c 3.47759,-4.55132 8.82059,-11.08236 11.87333,-14.51342 16.35171,-18.37817 35.75366,-86.42836 24.64179,-86.42836 -8.21225,0 -28.85712,21.92585 -38.5806,40.97448 -6.74174,13.2073 -11.41632,72.64627 -5.42333,68.95964 0.64126,-0.39447 4.01122,-4.44102 7.48881,-8.99234 z m 11.15812,-50.27512 c 0,-0.97778 0.40187,-1.37778 0.89304,-0.88889 0.49118,0.48889 0.49118,1.28889 0,1.77778 -0.49117,0.48889 -0.89304,0.0889 -0.89304,-0.88889 z m 1.33957,-4.66667 c 0,-0.36666 0.3014,-0.66666 0.66978,-0.66666 0.36838,0 0.66979,0.3 0.66979,0.66666 0,0.36667 -0.30141,0.66667 -0.66979,0.66667 -0.36838,0 -0.66978,-0.3 -0.66978,-0.66667 z m -159.41671,44.58585 c -3.07437,-37.54384 -19.36821,-69.70256 -44.60057,-88.02697 -9.38987,-6.81918 -9.38987,-6.81918 -8.51449,4.51621 2.86749,37.13134 12.29982,60.53043 34.03963,84.44324 18.96242,20.8578 20.85222,20.76542 19.07543,-0.93248 z m -26.78367,-41.3312 c 0,-0.77662 0.60281,-1.0412 1.33957,-0.58798 0.73676,0.45322 1.33957,1.08864 1.33957,1.41202 0,0.32339 -0.60281,0.58798 -1.33957,0.58798 -0.73676,0 -1.33957,-0.63541 -1.33957,-1.41202 z m -238.33409,30.74535 c 0.6765,0 1.23001,-6.3 1.23001,-14 0,-14 0,-14 14.73528,-14 14.73528,0 14.73528,0 14.73528,-3.91015 0,-5.22334 -2.72652,-5.93669 -18.26014,-4.77751 -12.54999,0.93653 -12.54999,0.93653 -12.54999,-7.00181 0,-11.91766 -1.47516,-20.446 -3.6824,-21.28906 -3.26968,-1.24885 -4.3131,2.43707 -4.33452,15.31187 -0.018,10.81432 -0.30923,12.34454 -2.36476,12.42436 -1.28934,0.0501 -7.36019,0.0119 -13.49078,-0.0847 -12.03557,-0.18977 -14.97511,0.997 -14.97511,6.04584 0,4.1486 1.26029,4.41368 17.07954,3.59231 13.7306,-0.71291 13.7306,-0.71291 13.7306,10.73451 0,13.04197 1.61103,18.98097 4.81668,17.75657 1.15516,-0.44122 2.6538,-0.80221 3.33031,-0.80221 z m 670.44843,-9.33333 c 0.213,-20.74068 -1.4872,-18.66667 15.3024,-18.66667 14.6222,0 14.7352,-0.0243 14.7352,-3.17007 0,-5.64727 -2.789,-6.57213 -16.6912,-5.53471 -12.6828,0.94646 -12.6828,0.94646 -13.066,-12.84105 -0.6083,-21.89344 -7.7507,-22.52593 -7.7507,-0.68636 0,13.94494 0,13.94494 -14.03332,13.23205 -15.33774,-0.77915 -18.1164,0.12587 -18.1164,5.90059 0,3.24058 0,3.24058 15.73997,3.00602 15.73995,-0.23457 15.73995,-0.23457 16.09595,12.92948 0.5645,20.86628 7.5758,26.11818 7.7841,5.83072 z M 649.47706,559.83883 c -5.20465,-8.48941 -21.12445,-32.50038 -26.68132,-40.24198 -2.10552,-2.93333 -10.1268,-14.07617 -17.82507,-24.76186 -19.46084,-27.01292 -22.08016,-31.9048 -17.08317,-31.9048 3.57762,0 10.52279,5.88439 20.48034,17.35225 8.58591,9.88818 26.58885,32.84684 26.58885,33.90804 0,0.30312 2.35684,4.08291 5.23743,8.39952 8.6847,13.01418 14.81855,25.11541 21.74035,42.89063 2.89511,7.43466 3.55895,0.16653 1.21062,-13.25452 -10.64547,-60.84038 -46.34614,-107.14153 -93.02666,-120.64873 -10.33061,-2.98921 -10.75272,-2.40125 -8.93854,12.45009 4.94076,40.44593 37.29264,87.98501 78.42583,115.24188 15.47919,10.25728 15.82283,10.2771 9.87134,0.56948 z m 51.75915,-3.24198 c 13.58758,-38.16858 50.52343,-88.69664 68.01248,-93.04073 6.99711,-1.73801 1.29242,8.98254 -17.4045,32.7074 -15.17459,19.2553 -44.55067,64.83931 -44.55067,69.13101 0,6.51523 34.66035,-22.66017 54.40761,-45.79768 20.07441,-23.52084 31.85993,-49.93328 37.33298,-83.66666 2.00046,-12.32989 -36.28746,3.66804 -61.37297,25.64361 -21.1116,18.49432 -39.27015,59.52622 -42.0135,94.93564 -1.0433,13.46615 0.81554,13.49523 5.58857,0.0874 z M 524.21275,486.44482 c 18.10878,-7.5311 14.55395,-31.6436 -4.98834,-33.83604 -22.80976,-2.55902 -22.57897,32.06293 0.2373,35.59621 0.20786,0.0322 2.34582,-0.75989 4.75104,-1.76017 z m -11.75086,-11.81131 c -2.70063,-3.83774 -2.67473,-4.01423 1.19965,-8.17529 5.17094,-5.55356 15.46903,-4.66934 15.46903,1.3282 0,9.00457 -11.75306,13.83244 -16.66868,6.84709 z m 336.61855,7.8645 c 8.22027,-7.59183 9.21089,-17.15642 2.49032,-24.04454 -14.06481,-14.41546 -34.97548,1.33859 -25.63636,19.31437 4.35346,8.37946 16.50565,10.8629 23.14604,4.73017 z m -14.48053,-7.48017 c -2.87224,-5.34183 -0.17904,-12.08765 4.82588,-12.08765 6.95164,0 11.02714,7.98341 6.41766,12.57142 -2.98715,2.97324 -9.53626,2.69145 -11.24354,-0.48377 z M 620.68874,419.59077 c 9.07518,-4.31295 14.18438,-18.46376 9.74886,-27.00118 -7.32552,-14.10002 -28.95388,-12.93059 -35.1804,1.90219 -7.04144,16.77405 9.20674,32.80976 25.43154,25.09899 z m -12.18859,-10.85748 c -4.62469,-2.26919 -5.67099,-6.19496 -2.98333,-11.19353 4.99666,-9.29285 20.03247,-3.56921 16.50914,6.28448 -2.507,7.01125 -6.37807,8.41622 -13.52581,4.90905 z m 145.31096,10.63138 c 20.34664,-9.61016 5.82728,-43.16731 -14.7183,-34.01694 -17.05559,7.59603 -15.57072,29.50493 2.35978,34.81785 5.88417,1.74352 7.14435,1.66185 12.35852,-0.80091 z m -14.36788,-11.10115 c -3.08885,-3.07447 -3.26759,-4.39589 -1.13903,-8.42098 4.3085,-8.14736 16.20921,-6.33443 16.20921,2.46927 0,7.6532 -9.56538,11.43088 -15.07018,5.95171 z m -83.0534,-11.33333 c 0,-0.36667 -0.30141,-0.66667 -0.66979,-0.66667 -0.36838,0 -0.66978,0.3 -0.66978,0.66667 0,0.36667 0.3014,0.66667 0.66978,0.66667 0.36838,0 0.66979,-0.3 0.66979,-0.66667 z m -19.42378,-54.16862 c 19.25691,-2.26019 78.85847,-2.27071 93.50942,-0.0165 13.35845,2.05535 13.2987,2.07232 12.18677,-3.46143 -0.95365,-4.74608 -0.71614,-4.7046 -40.50236,-7.0738 -19.33943,-1.15163 -82.83893,0.17866 -84.02481,1.76029 -2.82505,3.76779 -1.58518,11.86157 1.70935,11.15865 2.04925,-0.43722 9.75398,-1.50247 17.12163,-2.36722 z m 109.93881,-26.92672 c 1.33528,-6.04679 -11.02872,-7.27712 -75.10997,-7.47405 -58.47045,-0.1797 -64.9383,0.81352 -61.60566,9.46035 1.64481,4.2676 135.7649,2.31901 136.71563,-1.9863 z M 619.88652,298.9484 c 8.63728,-0.0224 8.75159,-0.88183 1.50025,-11.27967 -12.58737,-18.04927 -25.8632,-27.4052 -38.88731,-27.4052 -8.3264,0 -8.49156,-0.41259 5.24991,13.11526 7.38009,7.26538 13.22025,14.41542 15.73996,19.2703 3.25888,6.27908 4.50589,7.58819 6.68529,7.0182 1.47353,-0.38537 5.84388,-0.70887 9.7119,-0.71889 z m 134.35909,-7.68487 c 3.18914,-4.95 10.00513,-13.34929 15.14665,-18.66509 10.08059,-10.42227 10.29297,-11.26824 2.82883,-11.26824 -18.28896,0 -54.59118,36.45186 -37.80125,37.95706 14.68059,1.3161 13.50076,1.79359 19.82577,-8.02373 z m -40.34544,3.79417 c 1.52369,-2.12987 2.77035,-4.50296 2.77035,-5.27352 0,-0.77057 2.44193,-6.9243 5.42651,-13.67495 6.69887,-15.15182 6.63533,-19.01228 -0.3224,-19.58806 -5.94454,-0.49194 -7.02492,0.86692 -14.60742,18.37278 -8.94638,20.65472 -8.76921,22.42973 2.37934,23.83647 0.87079,0.10988 2.82991,-1.54285 4.35362,-3.67272 z m -56.90828,-0.46084 c -10.51099,-34.3479 -14.76591,-39.64705 -27.72155,-34.5249 -3.67699,1.45373 -3.67699,1.45373 0.29238,7.68364 2.18316,3.42645 5.58186,10.49247 7.55266,15.70225 5.57219,14.72994 5.01282,14.13901 13.38378,14.13901 7.06422,0 7.36784,-0.14029 6.49273,-3 z m 29.3317,-8 c 3.25198,-41.58021 -5.1442,-75.77429 -13.2594,-53.99999 -2.61955,7.02864 -3.82032,56.8639 -1.51425,62.84544 3.26502,8.46888 13.91837,2.09039 14.77365,-8.84545 z M 573.84754,253.08211 c 8.45477,-3.51618 9.10729,-18.73867 0.94745,-22.10285 -12.46272,-5.13819 -23.13612,10.57946 -13.61776,20.0535 4.407,4.38648 6.31037,4.69433 12.67031,2.04935 z m 219.90921,-1.42464 c 6.94684,-6.91449 0.25973,-20.72727 -10.03461,-20.72727 -10.45647,0 -14.16385,11.57483 -6.2351,19.46667 5.65598,5.62963 11.43071,6.07707 16.26971,1.2606 z m -160.70267,-4.57456 c 5.17852,-3.14315 7.848,-9.28636 6.69457,-15.40605 -2.83807,-15.05774 -26.28464,-12.50006 -26.62504,2.90442 -0.2777,12.56774 9.60661,18.76779 19.93047,12.50163 z m -9.80151,-9.42046 c -1.32704,-2.11505 -1.24421,-2.98706 0.44324,-4.66667 3.7991,-3.78141 8.0357,-1.39409 6.72816,3.79131 -1.04652,4.15025 -4.82708,4.61171 -7.1714,0.87536 z m 115.99532,8.78223 c 5.35653,-4.14845 4.77641,-14.53925 -1.16518,-20.87014 -10.90806,-11.62273 -28.97225,1.962 -21.38149,16.07942 3.41105,6.34393 16.8532,9.20012 22.54667,4.79072 z m -13.53527,-7.62128 c -3.07088,-1.7803 -2.99417,-4.84151 0.14618,-5.83358 3.17637,-1.00345 6.45947,0.2427 7.45713,2.83046 1.60264,4.15697 -2.68905,5.85208 -7.60331,3.00312 z m -11.72124,-12.55987 c 0,-0.36666 -0.3014,-0.66666 -0.66979,-0.66666 -0.36837,0 -0.66978,0.3 -0.66978,0.66666 0,0.36667 0.30141,0.66667 0.66978,0.66667 0.36839,0 0.66979,-0.3 0.66979,-0.66667 z M 684.995,214.3272 c 3.82649,-3.52976 4.55465,-8.35124 1.98615,-13.15132 -5.69751,-10.64767 -19.87476,-6.98652 -19.87476,5.13249 0,10.55999 10.18461,15.1254 17.88861,8.01883 z"
       id="path8" />
  </g>
</svg>
